<svg width="45" height="44" viewBox="0 0 45 44" fill="none" xmlns="http://www.w3.org/2000/svg">
<path fill-rule="evenodd" clip-rule="evenodd" d="M14.1641 3.30826C9.79199 5.12533 5.08726 7.08043 3.70908 7.65309C2.3309 8.22567 1.0903 8.76292 0.952203 8.84689C0.483672 9.1318 0.414062 9.43158 0.414062 11.1635C0.414062 12.9775 0.496133 13.2662 1.09933 13.5739C1.43646 13.7459 1.56133 13.7469 22.4141 13.7469C43.2668 13.7469 43.3917 13.7459 43.7288 13.5739C44.3316 13.2663 44.4141 12.9769 44.4141 11.1686C44.4141 9.37013 44.3299 9.06992 43.7419 8.76988C43.5624 8.67835 41.9291 7.98588 40.1121 7.23101C24.7813 0.861969 22.6594 -0.00411081 22.3967 1.4607e-05C22.2269 0.00267894 18.9277 1.32848 14.1641 3.30826ZM30.7522 7.47398C31.1335 7.66856 31.4375 8.1637 31.4375 8.59017C31.4375 9.01663 31.1335 9.51177 30.7522 9.70635C30.4195 9.87609 30.2614 9.87936 22.4077 9.87936H14.4023L14.0595 9.68667C13.1946 9.20056 13.1858 8.02412 14.0431 7.50509L14.3789 7.30183L22.396 7.3014C30.2618 7.30097 30.4195 7.30424 30.7522 7.47398ZM4.53906 22.9862V29.647H7.80469H11.0703V22.9862V16.3253H7.80469H4.53906V22.9862ZM33.7578 22.9862V29.647H37.0234H40.2891V22.9862V16.3253H37.0234H33.7578V22.9862ZM21.792 18.2215C21.3715 18.4436 21.125 18.9248 21.125 19.5239V19.9791L20.6738 20.1859C20.1171 20.4409 19.2511 21.2933 18.985 21.8479C18.2204 23.4414 18.4901 25.1285 19.7032 26.3418C20.4237 27.0623 21.4323 27.4983 22.3787 27.4983C23.0698 27.4983 23.7031 28.1179 23.7031 28.7939C23.7031 29.4291 23.0491 30.0767 22.4077 30.0767C21.7755 30.0767 21.125 29.4228 21.125 28.7875C21.125 28.3611 20.821 27.8659 20.4397 27.6713C20.0102 27.4522 19.6617 27.4522 19.2321 27.6713C17.8624 28.3703 18.7011 31.1871 20.5661 32.1515L21.1244 32.4402L21.1247 32.8949C21.1251 33.5078 21.3715 33.9771 21.8103 34.201C22.7591 34.6851 23.7031 34.0332 23.7031 32.8937V32.4378L24.1543 32.2268C24.7115 31.9662 25.5681 31.1211 25.8401 30.5635C26.6095 28.9863 26.3401 27.2949 25.1249 26.074C24.4033 25.3491 23.406 24.9199 22.443 24.9199C21.7771 24.9199 21.125 24.2821 21.125 23.6308C21.125 22.9954 21.7755 22.3416 22.4077 22.3416C23.0678 22.3416 23.7031 22.9739 23.7031 23.6308C23.7031 24.2847 24.3383 24.9199 24.9922 24.9199C25.1378 24.9199 25.4095 24.8421 25.596 24.7469C26.3949 24.3393 26.4919 23.1906 25.8401 21.8548C25.5622 21.2852 24.7082 20.4397 24.1543 20.1859L23.7031 19.9791V19.5239C23.7031 18.3831 22.7352 17.7235 21.792 18.2215ZM3.59985 32.3746C2.9579 32.7049 2.8253 33.1303 2.82238 34.8682L2.82031 36.0929H7.81337H12.8064L12.7763 34.6534C12.7432 33.0755 12.6756 32.8339 12.1598 32.4493C11.9225 32.2722 11.8315 32.2678 7.90592 32.2457C4.21525 32.2248 3.87098 32.2351 3.59985 32.3746ZM32.8186 32.3746C32.1766 32.7049 32.044 33.1303 32.0411 34.8682L32.0391 36.0929H37.0321H42.0252L41.995 34.6534C41.9619 33.0755 41.8944 32.8339 41.3786 32.4493C41.1412 32.2722 41.0503 32.2678 37.1247 32.2457C33.434 32.2248 33.0897 32.2351 32.8186 32.3746ZM1.53383 38.5092C1.15888 38.6588 0.760906 39.0159 0.585164 39.3605C0.432023 39.6607 0.414062 39.868 0.414062 41.3357C0.414062 43.2392 0.490289 43.5162 1.09933 43.827C1.43646 43.999 1.56133 44 22.4141 44C43.2668 44 43.3917 43.999 43.7288 43.827C43.9503 43.714 44.1297 43.5329 44.2459 43.3052C44.4115 42.9805 44.422 42.8358 44.3975 41.2084L44.3711 39.4603L44.1053 39.1303C43.9591 38.9488 43.7117 38.7133 43.5555 38.6069L43.2714 38.4135L22.5088 38.4189C9.08008 38.4224 1.67107 38.4543 1.53383 38.5092Z" fill="#C58132"/>
</svg>
