<svg xmlns="http://www.w3.org/2000/svg" xmlns:xlink="http://www.w3.org/1999/xlink" xmlns:svgjs="http://svgjs.com/svgjs" width="512" height="512" x="0" y="0" viewBox="0 0 512 512" style="enable-background:new 0 0 512 512" xml:space="preserve" class=""><g><g xmlns="http://www.w3.org/2000/svg"><g><path d="m224 192h64v192h-64z" fill="#eb7100" data-original="#acabb1" class=""></path><path d="m208 160h96v32h-96z" fill="#fbe1cb" data-original="#d8d7da" class=""></path><path d="m208 384h96v32h-96z" fill="#fbe1cb" data-original="#d8d7da" class=""></path><path d="m72 192h64v192h-64z" fill="#eb7100" data-original="#acabb1" class=""></path><path d="m56 160h96v32h-96z" fill="#fbe1cb" data-original="#d8d7da" class=""></path><path d="m56 384h96v32h-96z" fill="#fbe1cb" data-original="#d8d7da" class=""></path><path d="m376 192h64v192h-64z" fill="#eb7100" data-original="#acabb1" class=""></path><path d="m360 160h96v32h-96z" fill="#fbe1cb" data-original="#d8d7da" class=""></path><path d="m360 384h96v32h-96z" fill="#fbe1cb" data-original="#d8d7da" class=""></path><path d="m40 416h432v24h-432z" fill="#eb7100" data-original="#acabb1" class=""></path><path d="m40 136h432v24h-432z" fill="#eb7100" data-original="#acabb1" class=""></path><path d="m24 112h464v24h-464z" fill="#ffffff" data-original="#787680" class=""></path><path d="m24 440h464v24h-464z" fill="#ffffff" data-original="#787680" class=""></path><g fill="#d8d7da"><path d="m16 464h480v32h-480z" fill="#fbe1cb" data-original="#d8d7da" class=""></path><path d="m496 112h-480v-24l240-72 240 72z" fill="#fbe1cb" data-original="#d8d7da" class=""></path></g></g><path d="m456 200a8 8 0 0 0 8-8v-24h8a8 8 0 0 0 8-8v-16h8a8 8 0 0 0 8-8v-16a8 8 0 0 0 8-8v-24a8 8 0 0 0 -5.7-7.66l-240-72a8.006 8.006 0 0 0 -4.6 0l-240 72a8 8 0 0 0 -5.7 7.66v24a8 8 0 0 0 8 8v16a8 8 0 0 0 8 8h8v16a8 8 0 0 0 8 8h8v24a8 8 0 0 0 8 8h8v176h-8a8 8 0 0 0 -8 8v24h-8a8 8 0 0 0 -8 8v16h-8a8 8 0 0 0 -8 8v16a8 8 0 0 0 -8 8v32a8 8 0 0 0 8 8h480a8 8 0 0 0 8-8v-32a8 8 0 0 0 -8-8v-16a8 8 0 0 0 -8-8h-8v-16a8 8 0 0 0 -8-8h-8v-24a8 8 0 0 0 -8-8h-8v-176zm-432-96v-10.05l232-69.6 232 69.6v10.05zm8 24v-8h448v8zm16 24v-8h416v8zm400 240v16h-80v-16zm-64-16v-176h48v176zm-16 0h-8a8 8 0 0 0 -8 8v24h-40v-24a8 8 0 0 0 -8-8h-8v-176h8a8 8 0 0 0 8-8v-24h40v24a8 8 0 0 0 8 8h8zm-216 0h-8v-176h8a8 8 0 0 0 8-8v-24h40v24a8 8 0 0 0 8 8h8v176h-8a8 8 0 0 0 -8 8v24h-40v-24a8 8 0 0 0 -8-8zm-88-192v-16h80v16zm64 16v176h-48v-176zm88 192h80v16h-80zm16-16v-176h48v176zm-16-192v-16h80v16zm-152 208h80v16h-80zm424 80v16h-464v-16zm-8-24v8h-448v-8zm-16-24v8h-416v-8zm-96-240v-16h80v16z" fill="#222222" data-original="#000000" class=""></path></g></g></svg>