<svg width="47" height="43" viewBox="0 0 47 43" fill="none" xmlns="http://www.w3.org/2000/svg">
<path fill-rule="evenodd" clip-rule="evenodd" d="M11.9963 0.125481C7.5387 0.795861 3.76725 3.57851 1.81217 7.63972C0.333452 10.7113 0.025734 14.2155 0.898455 18.045C1.76138 21.8315 3.83971 25.2504 7.89532 29.5553C9.56103 31.3234 13.7251 35.1736 19.8389 40.5986C22.5702 43.0222 22.5371 43 23.4133 43C24.2585 43 24.302 42.9734 26.212 41.2907C32.3559 35.878 37.7143 30.7201 40.1051 27.9174C45.3154 21.8096 47.2213 16.3843 46.1079 10.8307C45.3758 7.17931 42.9309 3.73379 39.7296 1.84192C34.8981 -1.01338 28.43 -0.488835 23.9805 3.11901L23.4224 3.57155L22.6728 2.98875C21.1412 1.79795 18.9888 0.767462 17.1654 0.352025C15.559 -0.0140362 13.5187 -0.103445 11.9963 0.125481ZM26.2001 14.3728V17.2126H28.9869H31.7737V20.0983V22.9839H28.9869H26.2001V25.8237V28.6635H23.4133H20.6265V25.8237V22.9839H17.8396H15.0528V20.0983V17.2126H17.8396H20.6265V14.3728V11.533H23.4133H26.2001V14.3728Z" fill="#49ACAC"/>
</svg>
