<svg width="39" height="38" viewBox="0 0 39 38" fill="none" xmlns="http://www.w3.org/2000/svg">
<path fill-rule="evenodd" clip-rule="evenodd" d="M18.5459 0.0869158C17.5837 0.35802 17.8507 0.110554 9.295 8.66293C4.85096 13.1053 1.11685 16.8869 0.996907 17.0666C0.0769507 18.4446 0.2621 20.2885 1.43865 21.4661C2.11954 22.1477 2.98892 22.5009 3.9853 22.5009H4.48958V28.4442C4.48958 32.4676 4.51587 34.5146 4.57105 34.7813C4.85141 36.1368 5.94693 37.3611 7.29764 37.8281C7.79034 37.9986 7.8248 38 11.4096 38C14.9449 38 15.0292 37.9967 15.2298 37.8467C15.3426 37.7624 15.5038 37.6011 15.588 37.4883C15.7382 37.287 15.7419 37.1871 15.7783 32.3206L15.8154 27.358L16.0409 26.9923C16.3219 26.5365 16.8957 26.1721 17.4388 26.1046C17.6488 26.0785 18.6896 26.0682 19.7516 26.0817L21.6826 26.1062L22.0728 26.3226C22.4447 26.5289 22.6849 26.7746 22.915 27.1841C23.0007 27.3366 23.0261 28.2573 23.0565 32.3265C23.0929 37.1871 23.0966 37.287 23.2468 37.4883C23.331 37.6011 23.4923 37.7624 23.6051 37.8467C23.8057 37.9967 23.89 38 27.4253 38C31.01 38 31.0445 37.9986 31.5372 37.8281C32.8879 37.3611 33.9834 36.1368 34.2638 34.7813C34.319 34.5146 34.3453 32.4676 34.3453 28.4442V22.5009H34.8495C36.634 22.5009 38.0768 21.2897 38.3697 19.546C38.4854 18.8574 38.3736 18.127 38.0485 17.446C37.8357 17.0005 37.1897 16.3334 29.7502 8.87605C25.313 4.4283 21.5249 0.687255 21.3321 0.562667C21.1394 0.438154 20.8052 0.268222 20.5894 0.185114C20.0736 -0.0136611 19.0733 -0.0617566 18.5459 0.0869158Z" fill="#306A91"/>
</svg>
