<?xml version="1.0" encoding="iso-8859-1"?>
<!-- Uploaded to: SVG Repo, www.svgrepo.com, Generator: SVG Repo Mixer Tools -->
<svg height="800px" width="800px" version="1.1" id="Layer_1" xmlns="http://www.w3.org/2000/svg" xmlns:xlink="http://www.w3.org/1999/xlink" 
	 viewBox="0 0 474.595 474.595" xml:space="preserve">
<circle style="fill:#CA2128;" cx="237.297" cy="236.967" r="236.967"/>
<path style="fill:#BA202D;" d="M404.847,70.043c92.549,92.549,92.549,242.595,0,335.144c-92.542,92.542-242.595,92.546-335.144,0
	L404.847,70.043z"/>
<path style="fill:#A91E30;" d="M470.119,280.971L331.306,142.162l-19.622,19.622l-107.928-44.325l-92.302,92.299l48.688,103.565
	l-20.864,20.868L275.86,470.769C374,454.695,451.818,378.351,470.119,280.971z"/>
<path style="fill:#FFFFFF;" d="M236.927,103.146c-74.851,0-135.546,60.677-135.546,135.535c0,55.502,33.377,103.184,81.137,124.145
	c-0.382-9.474-0.067-20.834,2.346-31.117c2.623-11.016,17.452-73.87,17.452-73.87s-4.34-8.647-4.34-21.437
	c0-20.075,11.656-35.079,26.163-35.079c12.307,0,18.271,9.253,18.271,20.337c0,12.397-7.914,30.937-11.962,48.097
	c-3.405,14.376,7.207,26.103,21.369,26.103c25.687,0,42.978-32.969,42.978-72.052c0-29.702-19.996-51.929-56.389-51.929
	c-41.107,0-66.724,30.649-66.724,64.89c0,11.813,3.487,20.142,8.939,26.593c2.514,2.964,2.859,4.142,1.931,7.551
	c-0.621,2.5-2.11,8.498-2.739,10.87c-0.913,3.454-3.682,4.662-6.788,3.394c-18.937-7.719-27.757-28.456-27.757-51.771
	c0-38.496,32.464-84.673,96.871-84.673c51.741,0,85.814,37.452,85.814,77.646c0,53.167-29.575,92.879-73.141,92.879
	c-14.645,0-28.408-7.91-33.107-16.883c0,0-7.876,31.225-9.538,37.261c-2.874,10.425-8.505,20.894-13.643,29.033
	c12.176,3.592,25.059,5.545,38.413,5.545c74.836,0,135.524-60.673,135.524-135.535C372.451,163.823,311.763,103.146,236.927,103.146
	z"/>
</svg>