<svg width="47" height="46" viewBox="0 0 47 46" fill="none" xmlns="http://www.w3.org/2000/svg">
<path fill-rule="evenodd" clip-rule="evenodd" d="M22.8182 0.123419C22.4652 0.276981 22.2232 0.595247 21.3292 2.08199C19.7151 4.76613 19.1659 6.39915 19.4592 7.6423C19.7329 8.80268 20.6265 9.9601 21.5965 10.4104C21.9905 10.5932 22.0651 10.6662 22.0651 10.8684C22.0651 11.0646 21.9947 11.1405 21.684 11.2799C21.4743 11.3739 21.1368 11.5772 20.9337 11.7318L20.5646 12.0127L20.0873 11.7119C18.8868 10.9552 17.017 10.6854 15.1853 11.0048C13.8927 11.2301 12.9118 11.7218 11.5614 12.8214C10.6478 13.5654 9.98323 13.73 9.29997 13.3815C8.90118 13.1781 8.58328 12.6604 8.58328 12.2146C8.58328 11.5309 7.91898 10.8667 7.23509 10.8667C6.78911 10.8667 6.27132 11.1846 6.06783 11.5832C5.52371 12.6495 6.31815 14.629 7.64332 15.5086L8.11833 15.8239L8.00005 16.1083C7.90694 16.3322 3.75938 26.4768 3.57639 26.9283C3.54367 27.009 3.24114 27.0406 2.50323 27.0406C1.65073 27.0406 1.41525 27.0714 1.12098 27.2215C0.432151 27.5728 0.259494 28.3242 0.547376 29.7174C1.09231 32.3553 3.17732 34.4397 5.8159 34.9845C6.82039 35.192 12.9452 35.1935 13.9473 34.9866C15.2938 34.7085 16.4205 34.0967 17.3843 33.1201C18.5826 31.9061 19.2087 30.5398 19.3386 28.8553C19.385 28.2534 19.3661 28.1064 19.1996 27.7802C18.8957 27.1848 18.5194 27.0406 17.2693 27.0406H16.2411L14.03 21.5145C12.8139 18.4751 11.8189 15.958 11.819 15.921C11.8191 15.884 12.0193 15.7413 12.264 15.6039C12.5087 15.4665 13.0416 15.092 13.4482 14.7717C14.6994 13.7863 15.5768 13.4952 17.0125 13.589C18.7396 13.7019 19.2398 14.0978 19.4515 15.5198C19.51 15.9119 19.6617 16.3975 19.8303 16.7313C20.1754 17.4149 20.9646 18.2039 21.5965 18.4973L22.0651 18.7148V28.4334V38.1519L21.5965 38.3694C20.388 38.9305 19.3735 40.5152 19.3698 41.8478C19.3683 42.3954 19.082 42.9041 18.6521 43.1235C18.3353 43.285 18.1237 43.3044 16.6724 43.3044C15.2211 43.3044 15.0094 43.3237 14.6927 43.4852C14.2939 43.6887 13.976 44.2063 13.976 44.6522C13.976 45.098 14.2939 45.6157 14.6927 45.8191C15.0406 45.9966 15.2061 46 23.4133 46C31.6205 46 31.786 45.9966 32.1339 45.8191C32.5327 45.6157 32.8506 45.098 32.8506 44.6522C32.8506 44.2063 32.5327 43.6887 32.1339 43.4852C31.817 43.3236 31.6055 43.3044 30.1476 43.3044C28.6238 43.3044 28.4923 43.2911 28.1574 43.1029C27.7256 42.8603 27.4583 42.3814 27.4568 41.8478C27.4531 40.5152 26.4386 38.9305 25.2301 38.3694L24.7615 38.1519V28.4334V18.7148L25.2301 18.4973C25.8621 18.2039 26.6512 17.4149 26.9963 16.7313C27.1649 16.3975 27.3167 15.9119 27.3751 15.5198C27.6015 13.9995 28.1844 13.6057 30.1992 13.6117C31.4925 13.6156 32.0088 13.7723 32.9031 14.4327C33.7323 15.0451 34.8207 15.7913 34.9462 15.8336C35.0148 15.8566 34.2591 17.8539 32.8192 21.455L30.5859 27.0406H29.5576C28.7043 27.0406 28.4688 27.0714 28.1746 27.2215C27.4857 27.5728 27.3131 28.3242 27.601 29.7174C28.1459 32.3553 30.2309 34.4397 32.8695 34.9845C33.874 35.192 39.9988 35.1935 41.0008 34.9866C42.3474 34.7085 43.474 34.0967 44.4379 33.1201C45.6362 31.9061 46.2623 30.5398 46.3921 28.8553C46.4386 28.2534 46.4196 28.1064 46.2532 27.7802C45.9494 27.1849 45.573 27.0406 44.3234 27.0406C43.5855 27.0406 43.2829 27.009 43.2502 26.9283C43.0672 26.4768 38.9197 16.3322 38.8266 16.1083L38.7083 15.8239L39.1833 15.5086C40.5085 14.629 41.3029 12.6495 40.7588 11.5832C40.5553 11.1846 40.0375 10.8667 39.5915 10.8667C38.9076 10.8667 38.2433 11.5309 38.2433 12.2146C38.2433 12.6604 37.9254 13.1781 37.5266 13.3815C36.7868 13.7588 36.2168 13.5824 34.9628 12.5878C33.5212 11.4445 32.3711 10.9986 30.6036 10.8978C29.0822 10.8111 27.7097 11.1003 26.7393 11.7119L26.262 12.0127L25.8929 11.7318C25.6899 11.5772 25.3523 11.3739 25.1426 11.2799C24.8319 11.1405 24.7615 11.0646 24.7615 10.8684C24.7615 10.6662 24.8361 10.5932 25.2301 10.4104C25.8561 10.1197 26.6521 9.32716 26.9842 8.66377C27.6865 7.26077 27.5889 6.14693 26.5787 4.0357C26.1855 3.21398 24.935 1.09232 24.5345 0.567392C24.1277 0.0341037 23.4351 -0.145067 22.8182 0.123419ZM11.6577 22.8624L13.3291 27.0406H9.88463H6.44011L7.1133 25.4008C7.48361 24.4988 8.25495 22.6186 8.82748 21.2225C9.40001 19.8264 9.89488 18.6841 9.92733 18.6841C9.95977 18.6841 10.7384 20.5643 11.6577 22.8624ZM38.09 21.4472C38.7121 22.9668 39.4837 24.847 39.8048 25.6254L40.3887 27.0406H36.9431H33.4975L35.1689 22.8624C36.0882 20.5643 36.867 18.6841 36.8997 18.6841C36.9324 18.6841 37.468 19.9275 38.09 21.4472Z" fill="#B75437"/>
</svg>
