<svg xmlns="http://www.w3.org/2000/svg" xmlns:xlink="http://www.w3.org/1999/xlink" xmlns:svgjs="http://svgjs.com/svgjs" width="512" height="512" x="0" y="0" viewBox="0 0 512.005 512.005" style="enable-background:new 0 0 512 512" xml:space="preserve" class=""><g><g xmlns="http://www.w3.org/2000/svg">	<g transform="translate(1 1)">		<path style="" d="M473.88,502.469H155.331c-1.769,0.013-3.499-0.523-4.949-1.536L11.117,402.629    c-2.246-1.624-3.579-4.225-3.584-6.997V148.165c0.012-2.596,1.205-5.046,3.243-6.656L175.896,9.413    c1.493-1.219,3.363-1.882,5.291-1.877h288.939c3.87,0.012,7.248,2.627,8.229,6.37c0.981,3.744-0.68,7.679-4.047,9.587    l-227.84,129.109L255,340.336l223.573,146.432c3.188,2.059,4.633,5.976,3.546,9.612S477.675,502.497,473.88,502.469z" fill="#424242" data-original="#424242" class=""></path>		<path style="" d="M434.2,502.469H166.834c-1.769,0.013-3.499-0.523-4.949-1.536L22.62,402.629    c-2.246-1.624-3.579-4.225-3.584-6.997V148.165c0.012-2.596,1.205-5.046,3.243-6.656L187.399,9.413    c1.498-1.222,3.374-1.886,5.308-1.877h237.739c3.87,0.012,7.248,2.627,8.229,6.37c0.981,3.744-0.68,7.679-4.047,9.587    L206.77,152.603l8.533,187.733l223.573,146.432c3.185,2.057,4.631,5.97,3.548,9.604S437.992,502.49,434.2,502.469z" fill="#9e9e9e" data-original="#9e9e9e" class=""></path>		<path style="" d="M246.467,502.469l-91.136,0c-1.769,0.013-3.499-0.523-4.949-1.536L11.117,402.629    c-2.246-1.624-3.579-4.225-3.584-6.997v-38.229L246.467,502.469z" fill="#d6defe" data-original="#283593" class=""></path>		<path style="" d="M203.8,502.128l-48.469,0c-1.769,0.013-3.499-0.523-4.949-1.536L11.117,402.288    c-2.246-1.624-3.579-4.225-3.584-6.997v-20.821L203.8,502.128z" fill="#d6defe" data-original="#3f51b5" class=""></path>		<path style="" d="M493.933,169.669v230.4c0,27.648-21.504,51.2-76.8,51.2H280.6c-55.296,0-76.8-23.552-76.8-51.2    v-230.4c0-62.208,34.133-59.733,34.133-59.733s8.107-25.6,42.667-25.6h136.533c34.56,0,42.667,25.6,42.667,25.6    S493.933,107.461,493.933,169.669z" fill="#f57c00" data-original="#f57c00" class=""></path>		<path style="" d="M468.333,169.669v230.4c0,27.648-21.504,51.2-76.8,51.2H280.6c-55.296,0-76.8-23.552-76.8-51.2    v-230.4c0-62.208,34.133-59.733,34.133-59.733s8.107-25.6,42.667-25.6h110.933c34.56,0,42.667,25.6,42.667,25.6    S468.333,107.461,468.333,169.669z" fill="#eb7100" data-original="#ff9801" class=""></path>		<g>			<path style="" d="M413.037,320.351l-3.755,11.238c-1.443,4.29-0.566,9.021,2.316,12.51     c2.883,3.489,7.364,5.241,11.849,4.634c17.067-2.483,38.554-8.755,38.554-24.585c0-9.105-22.127-11.887-35.644-12.732     C420.403,311.019,414.93,314.69,413.037,320.351z" fill="#f4f4f4" data-original="#f4f4f4" class=""></path>			<path style="" d="M284.696,320.351l3.755,11.238c1.443,4.29,0.566,9.021-2.316,12.51     c-2.883,3.489-7.364,5.241-11.849,4.634c-17.067-2.483-38.554-8.755-38.554-24.585c0-9.105,22.127-11.887,35.644-12.732     C277.331,311.019,282.804,314.69,284.696,320.351z" fill="#f4f4f4" data-original="#f4f4f4" class=""></path>		</g>		<path style="" d="M457.155,152.603c-4.343,34.438-12.47,68.293-24.235,100.949    c-3.967,11.106-14.489,18.519-26.283,18.517H291.096c-11.794,0.002-22.315-7.411-26.283-18.517    c-11.765-32.657-19.892-66.511-24.235-100.949H457.155z" fill="#ececec" data-original="#0377bc" class=""></path>		<path style="" d="M434.2,152.603c-4.343,34.438-12.47,68.293-24.235,100.949    c-3.967,11.106-14.489,18.519-26.283,18.517h-92.587c-11.794,0.002-22.315-7.411-26.283-18.517    c-11.765-32.657-19.892-66.511-24.235-100.949H434.2z" fill="#d9d9d9" data-original="#02a9f4" class=""></path>		<path style="" d="M459.8,109.936c0,4.437-0.085,8.789-0.256,13.141c-0.171,3.072-0.256,6.144-0.512,9.131    c-0.427,6.912-1.109,13.739-1.877,20.395H240.579c-0.768-6.656-1.451-13.483-1.877-20.395c-0.256-2.987-0.341-6.059-0.512-9.131    c-0.171-4.352-0.256-8.704-0.256-13.141c0,0,8.107-25.6,42.667-25.6h136.533C451.693,84.336,459.8,109.936,459.8,109.936z" fill="#37474f" data-original="#37474f" class=""></path>		<g>			<path style="" d="M434.2,109.936c0,4.437-0.085,8.789-0.256,13.141c-0.171,3.072-0.256,6.144-0.512,9.131     c-0.427,6.912-1.109,13.739-1.877,20.395H240.579c-0.768-6.656-1.451-13.483-1.877-20.395c-0.256-2.987-0.341-6.059-0.512-9.131     c-0.171-4.352-0.256-8.704-0.256-13.141c0,0,8.107-25.6,42.667-25.6h110.933C426.093,84.336,434.2,109.936,434.2,109.936z" fill="#607d8b" data-original="#607d8b" class=""></path>			<path style="" d="M323.267,272.069c0-14.138,11.462-25.6,25.6-25.6c14.138,0,25.6,11.462,25.6,25.6H323.267z" fill="#607d8b" data-original="#607d8b" class=""></path>		</g>		<path style="" d="M109.933,340.336c-0.241,11.865,1.489,23.688,5.12,34.987L54.04,340.933    c-2.608-8.486-3.903-17.32-3.84-26.197V195.269c-0.178-11.706,2.149-23.315,6.827-34.048l64.085-22.016    c-8.134,14.473-12.009,30.95-11.179,47.531V340.336z" fill="#eb7100" data-original="#ff9801" class=""></path>		<path style="" d="M248.088,95.515c-4.485,3.93-7.967,8.874-10.155,14.421c0,0-34.133-2.475-34.133,59.733v230.4    c-0.215,12.902,5.282,25.239,15.019,33.707l-39.168-22.016l-64.597-36.437c-3.631-11.299-5.361-23.121-5.12-34.987v-153.6    c-0.83-16.581,3.045-33.058,11.179-47.531l64.512-22.187l27.733-9.557l14.08-4.864L248.088,95.515z" fill="#f57c00" data-original="#f57c00" class=""></path>		<g>			<path style="" d="M213.357,107.461c-0.683,1.536-1.024,2.475-1.024,2.475s-34.133-2.475-34.133,59.733v230.4     c-0.038,3.944,0.45,7.876,1.451,11.691l-64.597-36.437c-3.631-11.299-5.361-23.121-5.12-34.987v-153.6     c-0.83-16.581,3.045-33.058,11.179-47.531l64.512-22.187L213.357,107.461z" fill="#eb7100" data-original="#ff9801" class=""></path>			<path style="" d="M50.2,314.736c-0.063,8.877,1.232,17.712,3.84,26.197l-33.451-18.859     c-8.071-4.505-13.067-13.029-13.056-22.272V196.464c-0.001-10.925,6.917-20.651,17.237-24.235l32.256-11.008     c-4.677,10.733-7.005,22.342-6.827,34.048V314.736z" fill="#eb7100" data-original="#ff9801" class=""></path>		</g>		<path style="" d="M161.133,205.936v97.536c0.019,2.681-1.223,5.215-3.354,6.843    c-2.131,1.627-4.902,2.159-7.484,1.435l-15.701-4.352l-24.661-6.827v-93.952l24.235-5.376l16.555-3.669    c2.536-0.572,5.195,0.043,7.221,1.671C159.971,200.873,161.145,203.336,161.133,205.936z" fill="#ececec" data-original="#0377bc" class=""></path>		<g>			<path style="" d="M135.533,205.936v97.536c0.013,1.366-0.309,2.714-0.939,3.925l-24.661-6.827v-93.952l24.235-5.376     C135.076,202.638,135.551,204.271,135.533,205.936z" fill="#d9d9d9" data-original="#02a9f4" class=""></path>			<polygon style="" points="50.2,219.931 50.2,283.931 7.533,272.069 7.533,229.403    " fill="#d9d9d9" data-original="#02a9f4" class=""></polygon>			<polygon style="" points="109.933,206.619 109.933,300.571 50.2,283.931 50.2,219.931    " fill="#d9d9d9" data-original="#02a9f4" class=""></polygon>		</g>		<path style="" d="M417.133,408.603v42.667h-128v-42.667c0.028-9.414,7.653-17.039,17.067-17.067h93.867    C409.481,391.564,417.105,399.189,417.133,408.603z" fill="#ffffff" data-original="#c52828" class=""></path>		<path style="" d="M391.533,408.603v42.667h-102.4v-42.667c0.028-9.414,7.653-17.039,17.067-17.067h68.267    C383.881,391.564,391.505,399.189,391.533,408.603z" fill="#ffffff" data-original="#f44335" class=""></path>	</g>	<g>		<path d="M427.896,303.9c-9.825-0.668-18.857,5.398-21.956,14.746l-3.755,11.247c-2.402,7.165-0.884,15.065,4.002,20.83    c4.055,4.869,10.065,7.683,16.401,7.68c1.048-0.002,2.094-0.076,3.132-0.222c37.888-5.53,45.85-21.018,45.85-33.033    C471.535,308.559,446.626,305.078,427.896,303.9z M423.253,341.285c-1.51,0.247-3.035-0.345-3.985-1.545    c-1.052-1.226-1.377-2.917-0.853-4.446l3.755-11.247c0.675-1.988,2.608-3.269,4.702-3.115c9.458-0.143,18.841,1.706,27.537,5.427    C452.651,336.216,430.268,340.261,423.253,341.285z" fill="#000000" data-original="#000000" class=""></path>		<path d="M293.794,318.646c-3.091-9.353-12.129-15.423-21.956-14.746c-18.773,1.178-43.639,4.659-43.639,21.248    c0,12.015,7.962,27.503,45.858,33.033c1.035,0.146,2.078,0.22,3.123,0.222c6.336,0.003,12.346-2.811,16.401-7.68    c4.867-5.765,6.369-13.654,3.959-20.804L293.794,318.646z M280.491,339.74c-0.955,1.188-2.47,1.777-3.977,1.545    c-7.049-1.024-29.431-5.06-31.147-14.925c8.697-3.721,18.079-5.57,27.537-5.427c2.095-0.157,4.03,1.125,4.702,3.115l3.746,11.238    C281.879,336.818,281.551,338.515,280.491,339.74z" fill="#000000" data-original="#000000" class=""></path>		<path d="M290.133,128.003H409.6c4.713,0,8.533-3.821,8.533-8.533c0-4.713-3.821-8.533-8.533-8.533H290.133    c-4.713,0-8.533,3.821-8.533,8.533C281.6,124.182,285.421,128.003,290.133,128.003z" fill="#000000" data-original="#000000" class=""></path>		<path d="M3.61,408.041l145.067,102.4c1.44,1.017,3.161,1.562,4.924,1.562h349.867c3.761,0.001,7.078-2.46,8.169-6.059    c1.09-3.599-0.304-7.488-3.433-9.574l-58.121-38.741c48.828-10.479,53.385-44.749,53.385-56.559v-230.4    c0-27.247-6.238-46.874-18.56-58.342c-5.099-4.852-11.49-8.129-18.406-9.438l-0.06-0.094c-0.521-0.964-1.169-2.031-1.886-3.14    l-0.597-0.896c-1.885-2.741-4.044-5.282-6.443-7.586l-1.007-0.93c-3.113-2.812-6.578-5.207-10.308-7.125    c-0.512-0.265-1.024-0.512-1.553-0.759c-2.222-1.085-4.52-2.003-6.878-2.748c-2.621-0.785-5.292-1.389-7.996-1.809    c-0.717-0.119-1.434-0.222-2.176-0.316c-3.136-0.438-6.297-0.666-9.463-0.683h-18.62l108.134-60.826    c3.385-1.9,5.061-5.846,4.078-9.602s-4.377-6.374-8.259-6.373H179.2c-1.938-0.001-3.819,0.658-5.333,1.869L3.2,138.405    c-0.128,0.102-0.179,0.256-0.299,0.358c-0.423,0.413-0.804,0.867-1.135,1.357c-0.321,0.401-0.607,0.829-0.853,1.28    c-0.197,0.477-0.351,0.971-0.461,1.476c-0.174,0.556-0.291,1.127-0.35,1.707C0.085,144.771,0,144.907,0,145.069v256    C-0.001,403.841,1.345,406.441,3.61,408.041z M156.305,494.936L17.067,396.649v-23.04l199.902,121.327H156.305z M475.307,494.936    H249.856L17.067,353.598v-23.287c0.111,0.06,0.196,0.137,0.307,0.196l94.413,53.214l103.305,58.197    c12.433,10.581,32.819,18.884,66.509,18.884h136.533c1.988,0,3.738-0.154,5.641-0.205L475.307,494.936z M106.803,154.456    c-3.033,10.83-4.515,22.034-4.403,33.28V200.8l-42.667,9.481v-14.012c-0.093-9.322,1.542-18.58,4.821-27.307L106.803,154.456z     M382.788,264.536c-3.832-15.055-17.387-25.592-32.922-25.592c-15.535,0-29.09,10.538-32.922,25.592h-24.883    c-8.165-0.032-15.439-5.167-18.202-12.851c-10.422-29.04-17.965-59.034-22.519-89.549h197.043    c-4.549,30.516-12.089,60.51-22.511,89.549c-2.762,7.684-10.036,12.82-18.202,12.851H382.788z M364.638,264.536h-29.542    c3.051-5.272,8.68-8.518,14.771-8.518C355.958,256.018,361.587,259.264,364.638,264.536z M206.353,123.181    c-0.785,1.365-1.519,2.807-2.219,4.267c-0.23,0.495-0.486,0.956-0.708,1.459c-0.902,2.078-1.7,4.2-2.389,6.357    c-0.179,0.555-0.324,1.169-0.495,1.707c-0.512,1.707-0.99,3.473-1.408,5.308c-0.196,0.853-0.367,1.783-0.546,2.679    c-0.333,1.655-0.631,3.345-0.853,5.12c-0.145,0.973-0.282,1.954-0.401,2.961c-0.23,1.869-0.401,3.806-0.555,5.769    c-0.068,0.922-0.154,1.809-0.213,2.748c-0.162,2.935-0.265,5.973-0.265,9.071v230.443c0,1.178,0.077,2.645,0.205,4.224    c0.135,2.357,0.42,4.703,0.853,7.023l-74.24-41.813c-2.591-9.501-3.82-19.321-3.652-29.167v-28.595l29.568,8.209    c5.136,1.457,10.659,0.397,14.891-2.859c4.263-3.209,6.762-8.241,6.741-13.577V206.91c0.002-5.178-2.347-10.077-6.386-13.317    c-4.039-3.24-9.33-4.472-14.384-3.349l-30.43,6.767v-9.276c-0.633-13.987,2.235-27.91,8.346-40.508l80.87-27.759    c-0.427,0.606-0.802,1.297-1.203,1.937S206.711,122.558,206.353,123.181z M62.507,336.352c-1.83-6.72-2.762-13.652-2.773-20.617    v-19.627l42.667,11.853v33.374c-0.003,6.066,0.387,12.126,1.169,18.142L62.507,336.352z M59.733,227.766l42.667-9.481v72.004    l-42.667-11.853V227.766z M42.667,273.692l-25.6-7.108v-29.355l25.6-5.683V273.692z M119.467,214.488l34.133-7.578v97.604    l-34.133-9.489V214.488z M28.587,181.336l16.128-5.547c-1.379,6.739-2.065,13.601-2.048,20.48v17.809l-25.6,5.692v-22.298    C17.068,190.186,21.696,183.704,28.587,181.336z M17.067,284.29l25.6,7.117v24.329c0,3.285,0.154,6.519,0.444,9.685l-17.357-9.779    c-5.366-3.024-8.686-8.705-8.687-14.865V284.29z M409.6,443.736H298.667v-34.133c0-4.713,3.82-8.533,8.533-8.533h93.867    c4.713,0,8.533,3.821,8.533,8.533V443.736z M486.4,170.669v230.4c0,25.284-21.649,40.499-59.733,42.445v-33.911    c0-14.138-11.462-25.6-25.6-25.6H307.2c-14.138,0-25.6,11.462-25.6,25.6v34.133c-26.163,0-45.542-5.692-56.849-16.128    c-1.604-1.453-3.077-3.043-4.403-4.753c-0.213-0.273-0.375-0.58-0.572-0.853c-1.12-1.572-2.099-3.24-2.927-4.983    c-0.205-0.435-0.444-0.853-0.631-1.306c-0.831-1.973-1.48-4.018-1.937-6.11c-0.102-0.486-0.179-0.981-0.273-1.468    c-0.433-2.331-0.658-4.695-0.674-7.066v-230.4c0-27.375,6.938-39.859,12.8-45.508c0.694-0.677,1.432-1.307,2.21-1.886    c0.393-0.299,0.785-0.529,1.178-0.777c0.393-0.247,0.64-0.452,0.947-0.631l0.162-0.077c0.102,3.354,0.273,6.69,0.478,10.01    c0,0.282,0,0.563,0,0.853c0.461,7.407,1.143,14.703,2.005,21.837v0.145c4.432,35.077,12.708,69.559,24.678,102.827    c5.209,14.454,18.906,24.103,34.27,24.141h115.61c15.358-0.045,29.046-9.693,34.253-24.141    c11.971-33.267,20.247-67.75,24.678-102.827v-0.179c0.853-7.134,1.545-14.43,2.005-21.837c0-0.282,0-0.563,0-0.853    c0.205-3.328,0.375-6.656,0.478-10.018c1.644,0.934,3.156,2.081,4.497,3.413C479.462,130.81,486.4,143.294,486.4,170.669z     M426.982,94.637c0.853,0.145,1.519,0.384,2.304,0.563l0.256,0.068c1.601,0.347,3.18,0.792,4.727,1.331    c0.853,0.324,1.647,0.7,2.441,1.067c1.168,0.507,2.307,1.077,3.413,1.707c0.725,0.435,1.391,0.853,2.031,1.331    c0.905,0.649,1.766,1.297,2.56,1.963c0.546,0.469,1.084,0.947,1.57,1.425c0.674,0.674,1.28,1.331,1.835,1.988    c0.375,0.452,0.785,0.913,1.109,1.34c0.478,0.657,0.853,1.254,1.254,1.843c0.23,0.358,0.512,0.759,0.7,1.092    c0.316,0.555,0.538,0.99,0.742,1.425c0.111,0.23,0.282,0.529,0.367,0.725c0,4.804-0.188,9.719-0.444,14.686    c-0.043,0.853-0.094,1.792-0.145,2.697c-0.29,4.992-0.666,10.035-1.178,15.147H249.242c-0.521-5.12-0.853-10.24-1.186-15.215    c-0.051-0.853-0.094-1.749-0.145-2.628c-0.247-4.949-0.41-9.847-0.444-14.635c1.649-3.436,3.924-6.535,6.707-9.139    c0.614-0.58,1.169-1.161,1.886-1.707l0.205-0.154c1.253-0.964,2.573-1.836,3.951-2.611c0.205-0.111,0.393-0.23,0.597-0.35    c1.595-0.842,3.249-1.567,4.949-2.167l1.033-0.358c1.986-0.645,4.017-1.145,6.076-1.493l1.058-0.145    c2.54-0.373,5.104-0.561,7.671-0.563h136.533C421.1,93.867,424.061,94.124,426.982,94.637z M182.195,17.069h288.7L364.698,76.803    H281.6c-3.163,0.014-6.322,0.239-9.455,0.674c-0.742,0.094-1.459,0.196-2.176,0.316c-5.153,0.815-10.166,2.352-14.891,4.565    c-0.521,0.247-1.033,0.495-1.545,0.759c-3.209,1.654-6.225,3.657-8.994,5.973L55.287,154.106L23.04,165.191    c-2.078,0.736-4.078,1.673-5.973,2.799v-18.773L182.195,17.069z" fill="#000000" data-original="#000000" class=""></path>	</g></g><g xmlns="http://www.w3.org/2000/svg"></g><g xmlns="http://www.w3.org/2000/svg"></g><g xmlns="http://www.w3.org/2000/svg"></g><g xmlns="http://www.w3.org/2000/svg"></g><g xmlns="http://www.w3.org/2000/svg"></g><g xmlns="http://www.w3.org/2000/svg"></g><g xmlns="http://www.w3.org/2000/svg"></g><g xmlns="http://www.w3.org/2000/svg"></g><g xmlns="http://www.w3.org/2000/svg"></g><g xmlns="http://www.w3.org/2000/svg"></g><g xmlns="http://www.w3.org/2000/svg"></g><g xmlns="http://www.w3.org/2000/svg"></g><g xmlns="http://www.w3.org/2000/svg"></g><g xmlns="http://www.w3.org/2000/svg"></g><g xmlns="http://www.w3.org/2000/svg"></g></g></svg>