<svg width="40" height="39" viewBox="0 0 40 39" fill="none" xmlns="http://www.w3.org/2000/svg">
<path fill-rule="evenodd" clip-rule="evenodd" d="M3.07099 0.12863C2.12788 0.375229 1.34676 0.996298 0.881223 1.86983C0.260637 3.0344 0.258351 4.18151 0.874366 5.33746C1.10378 5.76801 1.10835 5.79514 1.02134 6.21998C0.875585 6.93143 0.834365 8.34092 0.932653 9.24928C1.25624 12.2401 2.46092 15.4608 4.65228 19.194L4.80886 19.4607L4.24496 20.3904C1.68909 24.6044 0.274427 28.9477 0.427574 32.1107C0.57112 35.076 1.83568 37.1571 4.15429 38.2438C5.57048 38.9075 7.19528 39.1328 9.0741 38.9257C11.9981 38.6036 15.5435 37.2638 19.0252 35.1652C19.5525 34.8474 20.0174 34.5874 20.0581 34.5874C20.099 34.5874 20.5708 34.833 21.1066 35.1332C24.8568 37.2337 28.6974 38.367 31.5669 38.2197C32.0488 38.195 32.6414 38.1371 32.8838 38.0913C33.3128 38.0101 33.3321 38.0138 33.6076 38.2307C34.4735 38.9121 35.5989 39.1573 36.6367 38.8905C38.6178 38.3813 39.7967 36.467 39.301 34.564C39.1675 34.0511 38.8917 33.4827 38.6196 33.1592L38.4256 32.9286L38.5469 32.1386C38.7522 30.8015 38.5975 28.7585 38.161 27.0431C37.6599 25.0734 36.629 22.5844 35.4663 20.537C35.2074 20.0812 34.9956 19.6784 34.9956 19.642C34.9956 19.6057 35.2862 19.0928 35.6414 18.5024C38.429 13.8687 39.7401 9.46959 39.3302 6.12488C38.7942 1.74981 35.4266 -0.532066 30.447 0.10554C27.5983 0.470256 24.2582 1.74829 20.9762 3.72923C20.4104 4.0707 19.9133 4.3503 19.8714 4.3506C19.8295 4.35091 19.3666 4.10187 18.8428 3.79721C14.4995 1.27056 10.1154 0.0814592 6.91946 0.563226L6.15838 0.67799L5.73231 0.4509C4.87256 -0.00747178 3.99703 -0.113473 3.07099 0.12863ZM33.7925 2.49951C37.5453 3.45947 38.1587 7.84078 35.4041 14.0121C34.908 15.1234 33.9299 16.9896 33.6667 17.327C33.559 17.4651 33.5407 17.4677 33.4725 17.3544C33.0275 16.6151 30.7222 13.7555 29.5906 12.5391C29.1342 12.0485 28.979 11.8319 29.0177 11.739C29.465 10.6665 29.3566 9.32182 28.7463 8.37071C28.0228 7.24303 26.5621 6.57472 25.2454 6.76889C24.9325 6.81507 24.4983 6.9344 24.2806 7.03408L23.8847 7.21537L22.9829 6.53494C22.4868 6.16062 22.0721 5.82867 22.0612 5.79712C22.0321 5.71231 24.1476 4.56093 25.2327 4.07101C27.0767 3.23855 29.0582 2.61816 30.4621 2.43383C30.7974 2.38978 31.1745 2.3391 31.3002 2.32127C31.7818 2.25291 33.2348 2.35686 33.7925 2.49951ZM10.7559 3.00109C12.7566 3.41428 15.3485 4.42711 17.3368 5.5727L17.7736 5.8244L16.9343 6.45348C13.3701 9.12476 9.43899 13.0617 6.82148 16.5812L6.24272 17.3594L6.01514 16.9622C5.58648 16.2139 4.53152 13.9743 4.25494 13.2251C3.46932 11.0974 3.00325 8.60199 3.17682 7.45244L3.22772 7.11554H4.08671C4.92917 7.11554 4.95698 7.1099 5.5371 6.82315C6.31145 6.44037 6.8531 5.89878 7.23589 5.12431C7.52161 4.54637 7.52824 4.51383 7.52824 3.69052C7.52824 3.01809 7.55132 2.83649 7.64253 2.79054C7.87598 2.67296 9.79595 2.80281 10.7559 3.00109ZM20.9099 7.85945C21.4391 8.24665 21.9838 8.65054 22.1203 8.75699L22.3684 8.95063L22.2437 9.44771C22.0881 10.0686 22.0857 10.5749 22.2357 11.1512C22.5047 12.184 23.2363 13.08 24.1935 13.5492C25.0813 13.9843 25.9632 14.0321 26.9298 13.6976L27.4081 13.532L27.7782 13.9435C28.7526 15.027 29.8396 16.3205 30.452 17.1252C31.2792 18.2121 32.1764 19.498 32.1764 19.5966C32.1764 19.6368 31.9207 20.0207 31.608 20.4497C28.7565 24.3631 24.772 28.348 20.8574 31.2013L20.0471 31.792L19.8069 31.6509C19.3342 31.3733 17.7245 30.1997 16.825 29.4767C13.5897 26.8764 10.5887 23.7191 8.24544 20.4504L7.55102 19.4818L7.9028 18.9759C10.1571 15.7338 13.8546 11.8527 17.4713 8.93196C18.1692 8.36835 19.8275 7.15334 19.8971 7.15456C19.9249 7.15502 20.3806 7.47226 20.9099 7.85945ZM18.6904 14.2065C18.418 14.2648 17.8695 14.4736 17.4716 14.6703C16.8709 14.9673 16.6374 15.1392 16.0979 15.6822C15.0627 16.7239 14.6012 17.7553 14.523 19.2014C14.4671 20.2344 14.6155 20.954 15.0864 21.9336C15.3776 22.5398 15.5367 22.7582 16.0902 23.3117C16.635 23.8566 16.8722 24.0309 17.4716 24.3269C18.3131 24.7423 19.0042 24.9067 19.9095 24.9067C20.8148 24.9067 21.5059 24.7423 22.3474 24.3269C23.7135 23.6524 24.7863 22.3202 25.1692 20.823C25.4906 19.5657 25.3188 18.1667 24.695 16.9622C24.025 15.6687 22.6763 14.6074 21.2335 14.2383C20.5383 14.0605 19.4364 14.0467 18.6904 14.2065ZM6.88967 22.4899C9.74101 26.3189 13.8005 30.2831 17.5267 32.8772C17.7039 33.0005 17.8384 33.1351 17.8256 33.1763C17.785 33.3071 15.5716 34.492 14.4121 35.0036C11.5981 36.2451 9.29293 36.7975 7.34629 36.6968C6.30848 36.6432 5.74572 36.5056 5.01389 36.127C3.97006 35.587 3.26939 34.6534 2.9055 33.318C2.65437 32.3963 2.67212 30.6937 2.94664 29.379C3.26086 27.8743 3.81577 26.2517 4.5927 24.5664C4.96742 23.7536 6.13057 21.6326 6.20165 21.6326C6.22893 21.6326 6.5385 22.0184 6.88967 22.4899ZM33.9158 22.4899C35.5469 25.5288 36.5589 29.2272 36.334 31.3271L36.2808 31.8237L35.5598 31.8615C34.9285 31.8945 34.7703 31.9331 34.2878 32.1715C33.7059 32.4592 33.0545 33.0454 32.7347 33.5693C32.454 34.029 32.2526 34.7735 32.2526 35.3514V35.8707L31.7487 35.9247C31.4716 35.9544 30.9144 35.9546 30.5106 35.9252C28.3655 35.7691 26.2958 35.1437 23.6429 33.8499L22.1572 33.1254L22.3857 32.9463C25.3104 30.6545 26.3047 29.7907 28.2163 27.8814C30.045 26.0549 31.5092 24.3902 32.8917 22.5661C33.2173 22.1365 33.4959 21.785 33.5106 21.785C33.5254 21.785 33.7078 22.1022 33.9158 22.4899Z" fill="#679898"/>
</svg>
