<svg width="25" height="42" viewBox="0 0 25 42" fill="none" xmlns="http://www.w3.org/2000/svg">
<path fill-rule="evenodd" clip-rule="evenodd" d="M3.96189 0.114762C3.55264 0.263221 3.00084 0.858127 2.88895 1.27134C2.83412 1.47371 2.80202 2.67198 2.80178 4.52555L2.8013 7.45945H4.60221H6.40313L6.40265 4.52555C6.40241 2.63373 6.37079 1.47503 6.31364 1.26337C6.19598 0.827844 5.58727 0.203722 5.1625 0.0830837C4.73852 -0.0372269 4.35257 -0.0270506 3.96189 0.114762ZM9.96494 0.114762C9.55569 0.263221 9.00389 0.858127 8.89199 1.27134C8.83716 1.47371 8.80507 2.67198 8.80483 4.52555L8.80435 7.45945H10.6053H12.4062L12.4057 4.52555C12.4055 2.63373 12.3738 1.47503 12.3167 1.26337C12.199 0.827844 11.5903 0.203722 11.1655 0.0830837C10.7416 -0.0372269 10.3556 -0.0270506 9.96494 0.114762ZM15.968 0.114762C15.5587 0.263221 15.0069 0.858127 14.895 1.27134C14.7749 1.71491 14.7766 8.2038 14.8969 8.64942C15.0774 9.31762 15.8891 9.92056 16.6083 9.92056C17.3175 9.92056 18.1139 9.32172 18.3114 8.6399C18.442 8.18903 18.4492 1.74314 18.3197 1.26337C18.2021 0.827844 17.5934 0.203722 17.1686 0.0830837C16.7446 -0.0372269 16.3587 -0.0270506 15.968 0.114762ZM21.971 2.57678C21.5618 2.72524 21.01 3.32014 20.8981 3.73335C20.7808 4.16642 20.7823 8.21389 20.8999 8.64942C21.0804 9.31762 21.8921 9.92056 22.6114 9.92056C23.3206 9.92056 24.1169 9.32172 24.3145 8.6399C24.4424 8.19822 24.4492 4.1935 24.3228 3.72539C24.2051 3.28986 23.5964 2.66574 23.1716 2.5451C22.7477 2.42479 22.3617 2.43497 21.971 2.57678ZM2.02747 10.0719C1.22874 10.3577 0.6723 10.9875 0.47564 11.8283C0.349016 12.3692 0.423614 13.6729 0.644926 14.7894C1.17439 17.4599 2.58031 19.942 4.54218 21.6696L5.20252 22.2512V31.6461C5.20252 42.0418 5.16962 41.3886 5.71262 41.7857L5.9629 41.9687L13.5075 41.9905C20.9509 42.0119 21.0565 42.01 21.3705 41.8458C21.5761 41.7382 21.7457 41.5647 21.8499 41.3553C22.009 41.0357 22.0111 40.8932 22.0111 30.3968V19.7621L22.401 19.1696C23.5818 17.3754 24.2788 15.1919 24.3892 12.9417C24.4153 12.409 24.421 11.9731 24.4017 11.9731C24.3824 11.9731 24.1518 12.0544 23.8892 12.1537C23.5182 12.2939 23.2334 12.3348 22.6114 12.3368C21.6469 12.34 20.9736 12.1361 20.3184 11.6427C19.5938 11.097 19.5771 11.0929 19.2562 11.3817C18.8819 11.7187 18.3844 12.0039 17.8489 12.1884C17.1932 12.4143 15.8787 12.3966 15.2876 12.1539C15.0455 12.0546 14.8384 11.9732 14.8274 11.9732C14.8164 11.9731 14.8068 12.1671 14.806 12.404C14.8039 13.0715 14.5978 13.9244 14.2778 14.5913C13.9258 15.3245 13.0705 16.2536 12.3827 16.6497L11.919 16.9169L12.3873 17.4199C13.2616 18.3591 13.9187 19.4064 14.2463 20.3827C14.4481 20.984 14.4473 21.1101 14.2387 21.5519C13.9542 22.1542 13.2761 22.3899 12.6724 22.0962C12.351 21.9398 12.2065 21.7368 11.919 21.0383C11.0288 18.8755 8.7556 17.3122 6.49526 17.3082C6.3038 17.3078 6.02398 17.2476 5.87334 17.1743C5.07726 16.787 4.98665 15.6005 5.71262 15.0695C5.95418 14.8929 6.04383 14.8851 8.28408 14.8455L10.6053 14.8045L11.0601 14.5755C11.9186 14.1432 12.3629 13.3958 12.3629 12.3835C12.3629 11.3712 11.9186 10.6238 11.0601 10.1915L10.6053 9.9625L6.52319 9.94321C2.76616 9.92541 2.40814 9.93566 2.02747 10.0719Z" fill="#FF7247"/>
</svg>
