<svg width="39" height="38" viewBox="0 0 39 38" fill="none" xmlns="http://www.w3.org/2000/svg">
<path fill-rule="evenodd" clip-rule="evenodd" d="M24.3456 0.0498711C20.0266 0.597234 16.0726 3.1175 13.5048 6.95981C12.9435 7.79965 12.1274 9.48334 11.8074 10.4615C11.2508 12.1632 11.0216 13.9772 11.1641 15.5549C11.2109 16.0738 11.2623 16.5194 11.2782 16.5453C11.3351 16.6375 11.0044 18.079 10.7529 18.8351C10.404 19.8837 9.93733 20.8321 9.29782 21.7917C8.8155 22.5154 8.33911 23.0223 4.62883 26.7588C0.967809 30.4457 0.490903 30.9523 0.44365 31.2047C0.33594 31.7795 0.431633 31.9115 2.31722 33.7899C4.24532 35.7108 4.35407 35.7863 4.96917 35.6314C5.23051 35.5657 5.779 35.0414 9.3111 31.4812C11.9485 28.8228 13.563 27.2526 13.9554 26.9646C15.1199 26.1097 16.4679 25.4375 17.7783 25.0584C18.8368 24.7521 19.2467 24.7004 19.9324 24.7865C22.0887 25.0573 24.467 24.6854 26.6858 23.7304C31.2141 21.7816 34.7065 17.5533 35.7211 12.7915C35.9499 11.7175 36.0058 9.59551 35.8346 8.48274C35.696 7.58205 35.2673 6.1976 34.8998 5.46414C33.5127 2.6959 31.0554 0.83912 27.9304 0.197855C27.0544 0.0181496 25.2 -0.0584426 24.3456 0.0498711ZM27.4021 2.35469L27.8011 2.44458L26.4757 3.77354L25.1502 5.1025L23.9454 3.89761C23.2827 3.23495 22.765 2.6699 22.7948 2.64204C22.8645 2.57689 23.8214 2.36755 24.4439 2.2813C25.071 2.19438 26.8913 2.23955 27.4021 2.35469ZM30.4955 3.63433C30.987 3.95815 31.9987 4.97064 32.3331 5.4735L32.6044 5.88157L30.9353 7.55308L29.2662 9.22459L28.0048 7.96293L26.7433 6.70121L28.3933 5.0476C29.3008 4.13808 30.0628 3.39393 30.0868 3.39393C30.1108 3.39393 30.2946 3.50209 30.4955 3.63433ZM22.5334 7.72097L21.4765 8.77937L19.7148 7.01463L17.9531 5.24989L18.1757 5.06573C18.5371 4.76649 19.7015 3.97249 20.1032 3.75133L20.4752 3.54644L22.0327 5.10451L23.5903 6.66258L22.5334 7.72097ZM18.195 8.61349L19.9193 10.3415L18.8612 11.3993L17.8032 12.4569L16.2463 10.8965L14.6894 9.33595L14.9054 8.94645C15.3423 8.15876 16.2606 6.88552 16.3919 6.88552C16.4352 6.88552 17.2466 7.6631 18.195 8.61349ZM33.6445 8.87008C33.7818 9.83874 33.6991 11.7125 33.4804 12.5889L33.3084 13.2779L32.0853 12.0503L30.8621 10.8228L32.1587 9.52279C32.8717 8.80775 33.4771 8.22272 33.504 8.22272C33.5308 8.22272 33.594 8.51401 33.6445 8.87008ZM26.4662 9.54225L27.708 10.7875L26.6499 11.8451L25.5919 12.9029L24.3326 11.64L23.0733 10.3773L24.11 9.33714C24.6802 8.76511 25.1641 8.29701 25.1855 8.29701C25.2069 8.29701 25.7832 8.85738 26.4662 9.54225ZM15.0602 12.8287L16.2453 14.0174L14.9109 15.3562L13.5765 16.695L13.4819 16.229C13.3346 15.504 13.3409 13.6601 13.4933 12.8658C13.6607 11.9933 13.7552 11.64 13.8213 11.64C13.8508 11.64 14.4083 12.1749 15.0602 12.8287ZM22.9788 15.521L21.9223 16.5791L20.661 15.3176L19.3997 14.0562L20.4561 12.9963L21.5125 11.9365L22.7739 13.1997L24.0353 14.4629L22.9788 15.521ZM32.3812 15.5292C32.3812 15.6453 31.6619 16.7886 31.1896 17.4234L30.7281 18.0438L28.9585 16.2727L27.1889 14.5016L28.245 13.4421L29.3011 12.3826L30.8411 13.9236C31.6882 14.7712 32.3812 15.4937 32.3812 15.5292ZM19.1222 16.8967L20.3638 18.1417L18.7128 19.794C17.8047 20.7027 17.0329 21.4462 16.9976 21.4462C16.7133 21.4462 15.2185 20.0568 14.7306 19.339L14.4849 18.9776L16.1442 17.3146C17.0568 16.4 17.8208 15.6516 17.8421 15.6516C17.8632 15.6516 18.4393 16.2119 19.1222 16.8967ZM27.4117 17.8468C28.8965 19.3374 29.1374 19.6095 29.0394 19.6855C27.9919 20.499 27.4805 20.8483 26.9092 21.1402L26.6208 21.2875L25.0695 19.7326L23.5183 18.1778L24.555 17.1376C25.1252 16.5655 25.6091 16.0974 25.6304 16.0974C25.6516 16.0974 26.4532 16.8846 27.4117 17.8468ZM24.3127 22.1988C24.1714 22.3328 22.6929 22.5784 21.8105 22.6146C20.9408 22.6502 19.7547 22.5611 19.4279 22.4354C19.3418 22.4024 19.6587 22.0422 20.6342 21.0641L21.9573 19.7376L23.1621 20.9425C23.8247 21.6052 24.3425 22.1705 24.3127 22.1988ZM13.0117 20.7457C13.4514 21.3989 14.4076 22.3683 15.1563 22.9199L15.7718 23.3733L15.0821 23.6969C14.2922 24.0674 13.4314 24.578 12.6978 25.111L12.19 25.48L11.3797 24.6685L10.5694 23.857L10.8948 23.4092C11.4011 22.7124 12.0294 21.6213 12.3344 20.9093C12.4871 20.5527 12.6288 20.2613 12.6492 20.2617C12.6696 20.262 12.8327 20.4798 13.0117 20.7457ZM31.083 25.3624C29.7424 25.548 28.1746 26.4095 27.2662 27.4597C26.2701 28.6112 25.6695 30.1576 25.7205 31.4395L25.7421 31.9793L26.2242 31.6815C28.2874 30.4073 30.9475 29.7942 33.2714 30.0572C35.0677 30.2605 36.43 30.7209 38.0866 31.6846L38.4141 31.8751L38.3676 31.1679C38.1848 28.3798 36.0084 25.9522 33.2092 25.4139C32.7047 25.3169 31.6039 25.2902 31.083 25.3624ZM30.9848 32.2979C29.4753 32.4941 27.8048 33.1835 26.6785 34.0751L26.297 34.3771L26.4197 34.6163C26.8693 35.4925 27.7882 36.4824 28.6547 37.024C30.1037 37.9296 31.952 38.2293 33.5681 37.8206C35.2639 37.3916 36.8739 36.1243 37.6378 34.6169C37.725 34.4449 37.7964 34.2739 37.7964 34.2368C37.7964 34.1365 36.8451 33.5162 36.1807 33.1832C34.623 32.4024 32.701 32.0749 30.9848 32.2979Z" fill="#7AA74D"/>
</svg>
