<svg xmlns="http://www.w3.org/2000/svg" xmlns:xlink="http://www.w3.org/1999/xlink" xmlns:svgjs="http://svgjs.com/svgjs" width="512" height="512" x="0" y="0" viewBox="0 0 48 58" style="enable-background:new 0 0 512 512" xml:space="preserve" class=""><g><g xmlns="http://www.w3.org/2000/svg" id="Page-1" fill="none" fill-rule="evenodd"><g id="034---Customs-Officer" fill-rule="nonzero"><path id="Shape" d="m14.571 58h-11.571c-1.6548028-.0049422-2.9950578-1.3451972-3-3v-10c0-4.418278 3.581722-8 8-8h24.667c.4001493-.0000763.7618179.2383942.9193919.606212.157574.3678177.0807111.7941562-.1953919 1.083788l-18.091 19c-.189965.1992805-.4536867.3114256-.729.31z" fill="#eb7100" data-original="#3b97d3" class=""></path><path id="Shape" d="m39.819 37.338c.2026965-.2171414.491437-.3329308.788-.316 4.1711745.3174028 7.393555 3.7947667 7.393 7.978v10c-.0049422 1.6548028-1.3451972 2.9950578-3 3h-22.517c-.3999072.0000955-.7614172-.2380728-.9191584-.6055554s-.0813777-.7936073.1941584-1.0834446z" fill="#eb7100" data-original="#3b97d3" class=""></path><path id="Shape" d="m44 55h-5c-.5522847 0-1-.4477153-1-1s.4477153-1 1-1h4v-3c0-.5522847.4477153-1 1-1s1 .4477153 1 1v4c0 .5522847-.4477153 1-1 1z" fill="#fef4ed" data-original="#2980ba" class=""></path><path id="Shape" d="m14.6 50.3-3 2.25c-.3555556.2666667-.8444444.2666667-1.2 0l-3-2.25c-.25180584-.1888544-.4-.4852427-.4-.8v-5.5c0-.5522847.44771525-1 1-1h6c.5522847 0 1 .4477153 1 1v5.5c0 .3147573-.1481942.6111456-.4.8z" fill="#ececec" data-original="#f3d55b" class=""></path><path id="Shape" d="m37.29 14.62c.4711174 1.4122081.7108759 2.8912815.71 4.38 0 7.7319865-6.2680135 14-14 14s-14-6.2680135-14-14c-.00087591-1.4887185.2388826-2.9677919.71-4.38z" fill="#fbe1cb" data-original="#fdd7ad" class=""></path><path id="Shape" d="m9.93 11.23c-2.25-.91-3.48-2.26-2.69-4.25 1.64-4.17 12.11-6.29 15.62-6.88.7544402-.13000718 1.5255598-.13000718 2.28 0 3.51.59 13.98 2.71 15.62 6.88.79 1.99-.44 3.35-2.69 4.25z" fill="#eb7100" data-original="#3b97d3" class=""></path><path id="Shape" d="m39 12.66c0 .77-.66 1.42-1.71 1.96-1.5878769.7340044-3.2657051 1.2551735-4.99 1.55-5.4776672 1.1099898-11.1223328 1.1099898-16.6 0-1.7242949-.2948265-3.4021231-.8159956-4.99-1.55-1.05-.54-1.71-1.19-1.71-1.96.04816384-.6032884.39807577-1.141325.93-1.43 3.15-2.13 13.23-2.18 14.07-2.23 0 0 10.8 0 14.07 2.23.5349207.2854191.8860274.825293.93 1.43z" fill="#464f5d" data-original="#464f5d" class=""></path></g></g></g></svg>