<svg xmlns="http://www.w3.org/2000/svg" xmlns:xlink="http://www.w3.org/1999/xlink" xmlns:svgjs="http://svgjs.com/svgjs" width="512" height="512" x="0" y="0" viewBox="0 0 512 512" style="enable-background:new 0 0 512 512" xml:space="preserve" class=""><g><g xmlns="http://www.w3.org/2000/svg"><g><path d="m317.13 368.739 3.636-20.59c1.109-6.281 4.13-12.067 8.649-16.569l.058-.057 5.63-5.862c8.577-8.929 8.343-23.105-.524-31.746l-1.903-1.855c-4.51-4.396-11.68-4.466-16.276-.159l-13.705 12.844c-3.043 3.043-4.82 6.865-5.355 10.824-.198 1.469-.479 2.925-.951 4.33l-13.888 41.302z" fill="#fbe1cb" data-original="#ffece4" class=""></path></g><g><g><path d="m473.699 236.884h-298.759c-6.134 0-11.106-4.972-11.106-11.106v-201.955h320.971v201.955c0 6.134-4.972 11.106-11.106 11.106z" fill="#ffffff" data-original="#bed8fb" class=""></path><path d="m419.518 23.823v201.955c0 6.134-4.972 11.106-11.106 11.106h65.288c6.134 0 11.106-4.972 11.106-11.106v-201.955z" fill="#ffffff" data-original="#9dc6fb" class=""></path><path d="m262.675 163.428h-44.767c-5.15 0-9.325-4.175-9.325-9.325v-62.27c0-5.15 4.175-9.325 9.325-9.325h44.767c5.15 0 9.325 4.175 9.325 9.325v62.271c.001 5.149-4.175 9.324-9.325 9.324z" fill="#ffffff" data-original="#ffffff" class=""></path><g><path d="m233.699 238.89-.011-27.377c0-48.465-39.289-87.753-87.754-87.753-48.465 0-87.753 39.288-87.753 87.753l-.011 27.377c-.005 13.048-2.681 25.995-8.173 37.831-.077.166-.153.331-.229.497-12.123 26.536 4.654 57.63 33.556 61.602 2.805.385 5.67.585 8.581.585h108.059c2.911 0 5.776-.199 8.581-.585 28.902-3.972 45.679-35.065 33.556-61.602-.076-.166-.152-.332-.229-.497-5.493-11.835-8.168-24.783-8.173-37.831z" fill="#222222" data-original="#89808c" class=""></path></g><path d="m242.101 277.218c-.076-.166-.152-.332-.229-.497-5.492-11.835-8.168-24.783-8.173-37.83l-.011-27.377c0-48.465-39.289-87.753-87.754-87.753-11.53 0-22.538 2.228-32.623 6.269 32.309 12.947 55.13 44.549 55.13 81.484l.011 27.377c.005 13.048 2.681 25.995 8.173 37.83.077.166.153.331.229.497 12.122 26.536-4.654 57.63-33.556 61.602-2.805.385-5.67.585-8.581.585h65.247c2.911 0 5.776-.199 8.581-.585 28.902-3.972 45.678-35.065 33.556-61.602z" fill="#222222" data-original="#756e78" class=""></path><g><g><g><path d="m494.378 37.726h-340.117c-5.59 0-10.122-4.532-10.122-10.122v-9.725c0-5.59 4.532-10.122 10.122-10.122h340.117c5.59 0 10.122 4.532 10.122 10.122v9.725c0 5.59-4.532 10.122-10.122 10.122z" fill="#d6defe" data-original="#88a8d8" class=""></path></g></g><path d="m494.378 7.757h-65.288c5.59 0 10.122 4.532 10.122 10.122v9.725c0 5.59-4.532 10.122-10.122 10.122h65.288c5.59 0 10.122-4.532 10.122-10.122v-9.725c0-5.59-4.532-10.122-10.122-10.122z" fill="#d6defe" data-original="#7296d1" class=""></path><g><path d="m315.145 351.234-22.986-6.497c-3.969-1.122-8.121 1.068-9.436 4.978l-13.576 40.446c-14.077-22.193-36.915-38.509-64.246-43.769-2.045-.394-5.657-1.089-9.078-1.747-12.132-2.335-21.412-12.56-21.937-24.903-.018-.411-.026-.824-.026-1.238v-37.356h-55.851v37.356c0 .414-.009.827-.026 1.238-.525 12.343-9.807 22.569-21.939 24.904l-9.077 1.747c-46.129 8.878-79.467 49.244-79.467 96.219v43.499c0 10.014 8.118 18.132 18.132 18.132h246.916c13.096 0 24.302-9.401 26.579-22.297l21.532-121.923c.69-3.911-1.693-7.709-5.514-8.789z" fill="#eb7100" data-original="#ccf49f" class=""></path><path d="m315.145 351.234-22.986-6.497c-3.969-1.122-8.121 1.068-9.436 4.978l-13.576 40.446c-14.077-22.193-36.915-38.509-64.246-43.769-2.045-.394-5.657-1.089-9.078-1.747-12.132-2.335-21.412-12.56-21.937-24.903-.018-.411-.026-.824-.026-1.238v-37.356h-55.851v37.356c0 .414-.009.827-.026 1.238-.199 4.683-1.664 9.058-4.061 12.816 3.921 6.147 10.347 10.639 17.877 12.088 3.421.658 7.033 1.353 9.078 1.747 46.129 8.877 79.467 49.243 79.467 96.218v32.478c0 16.101-13.053 29.153-29.154 29.153h81.358c13.096 0 24.302-9.401 26.579-22.297l21.532-121.923c.69-3.91-1.693-7.708-5.514-8.788z" fill="#eb7100" data-original="#b3e59f" class=""></path><g><path d="m180.205 335.585c-3.723-4.339-6.064-9.835-6.32-15.842-.018-.411-.026-.824-.026-1.238v-37.356h-55.851v37.356c0 .414-.009.827-.026 1.238-.256 6.007-2.597 11.503-6.32 15.841-2.763 14.298-3.001 28.975-.655 43.345 10.754 4.478 22.547 6.959 34.926 6.959 12.374 0 24.163-2.479 34.914-6.954 2.35-14.372 2.122-29.049-.642-43.349z" fill="#fbe1cb" data-original="#ffddce" class=""></path></g><g><g><g><g><g><g><g><path d="m116.384 384.067c9.728 36.991 23.035 57.114 29.55 78.422 6.515-21.308 19.822-41.431 29.549-78.422.893-3.396 1.607-6.826 2.169-10.273-9.766 4.066-20.477 6.32-31.719 6.32-11.242 0-21.953-2.253-31.719-6.32.564 3.447 1.277 6.877 2.17 10.273z" fill="#ffffff" data-original="#ffffff" class=""></path></g></g></g></g><g fill="#ffddce"><path d="m212.591 217.797h-14.974v28.583c-.071 4.699-.694 9.262-1.778 13.644h16.752c11.663 0 21.117-9.457 21.113-21.12-.003-11.658-9.455-21.107-21.113-21.107z" fill="#fbe1cb" data-original="#ffddce" class=""></path><path d="m94.125 246.293v-24.63c0-1.318.2-2.585.551-3.786h-15.503c-11.59 0-20.986 9.394-20.99 20.983-.004 11.595 9.395 20.997 20.99 20.997h16.719c-1.077-4.355-1.696-8.892-1.767-13.564z" fill="#fbe1cb" data-original="#ffddce" class=""></path></g></g></g></g><g fill="#95d6a4"><path d="m117.633 323.01-30.539 15.22c-5.03 2.507-6.731 8.852-3.628 13.539l5.557 8.394c2.348 3.546 2.008 8.229-.826 11.4l-3.352 3.75c-2.132 2.385-2.901 5.691-2.036 8.771 7.596 27.048 63.125 78.407 63.125 78.407-6.515-21.308-19.822-41.431-29.55-78.422-5.275-20.062-4.762-41.208 1.249-61.059z" fill="#ffffff" data-original="#95d6a4" class=""></path><path d="m174.235 323.01 30.539 15.22c5.03 2.507 6.731 8.852 3.628 13.539l-5.557 8.394c-2.348 3.546-2.008 8.229.826 11.4l3.352 3.75c2.132 2.385 2.901 5.691 2.036 8.771-7.596 27.048-63.125 78.407-63.125 78.407 6.515-21.308 19.822-41.431 29.55-78.422 5.275-20.062 4.762-41.208-1.249-61.059z" fill="#ffffff" data-original="#95d6a4" class=""></path></g></g></g></g><path d="m202.475 204.291c-4.769-5.137-8.716-10.174-11.976-14.923-7.658-11.16-23.441-12.841-33.119-3.379-14.061 13.747-33.3 22.22-54.517 22.22-.997 0-1.99-.019-2.979-.056-7.686-.289-14.086 5.819-14.086 13.51v24.63c.496 32.798 27.221 59.236 60.137 59.236 32.916 0 59.641-26.439 60.136-59.236v-32.823c0-3.402-1.282-6.686-3.596-9.179z" fill="#fbe1cb" data-original="#ffece4" class=""></path><path d="m206.071 213.47c0-3.402-1.281-6.686-3.596-9.179-4.769-5.137-8.716-10.174-11.975-14.923-6.238-9.09-17.866-11.89-27.195-7.503 3.324 9.261 5.136 19.242 5.136 29.648l.011 27.377c.005 13.048 2.681 25.995 8.173 37.83.077.166.153.331.229.497 2.564 5.613 3.822 11.429 3.959 17.15 15.055-10.742 24.958-28.239 25.258-48.075z" fill="#fbe1cb" data-original="#ffddce" class=""></path><g><path d="m311.964 90.007h130.42c4.143 0 7.5-3.358 7.5-7.5s-3.357-7.5-7.5-7.5h-130.42c-4.143 0-7.5 3.358-7.5 7.5s3.357 7.5 7.5 7.5z" fill="#000000" data-original="#000000" class=""></path><path d="m311.964 130.468h130.42c4.143 0 7.5-3.358 7.5-7.5s-3.357-7.5-7.5-7.5h-130.42c-4.143 0-7.5 3.358-7.5 7.5s3.357 7.5 7.5 7.5z" fill="#000000" data-original="#000000" class=""></path><path d="m311.964 170.928h45.369c4.143 0 7.5-3.358 7.5-7.5s-3.357-7.5-7.5-7.5h-45.369c-4.143 0-7.5 3.358-7.5 7.5s3.357 7.5 7.5 7.5z" fill="#000000" data-original="#000000" class=""></path><path d="m494.378.257h-340.116c-9.717 0-17.622 7.905-17.622 17.622v9.725c0 9.717 7.905 17.622 17.622 17.622h2.072v45.325c0 4.142 3.357 7.5 7.5 7.5s7.5-3.358 7.5-7.5v-45.325h305.972v180.552c0 1.989-1.618 3.606-3.606 3.606h-115.425l15.165-40.055c1.466-3.874-.485-8.203-4.359-9.669-3.872-1.467-8.203.484-9.67 4.359l-17.174 45.365h-73.494c-4.143 0-7.5 3.358-7.5 7.5s3.357 7.5 7.5 7.5h67.815l-13.787 36.419c-4.15.366-8.208 2.076-11.48 5.143l-13.697 12.835c-.059.056-.117.112-.175.169-4.113 4.113-6.699 9.341-7.479 15.116-.426 3.151-.247 1.473-8.151 25.316-2.803 1.81-5.031 4.545-6.175 7.945l-9.002 26.819c-12.059-14.172-27.571-24.844-45.163-31.019 10.833-4.292 19.886-12.225 25.716-22.823 7.938-14.434 8.579-31.274 1.769-46.182l-.258-.561c-10.73-23.118-6.513-42.881-7.487-62.05 0-14.508-3.266-28.266-9.092-40.585h30.579c9.278 0 16.826-7.548 16.826-16.825v-62.268c0-9.277-7.548-16.825-16.826-16.825h-44.767c-9.277 0-16.825 7.548-16.825 16.825v42.057c-15.573-11.097-34.613-17.63-55.149-17.63-52.522 0-95.253 42.73-95.253 95.25l-.012 27.378c-.008 20.131-7.591 34.819-7.724 35.214-6.82 14.93-6.179 31.771 1.76 46.205 5.833 10.605 14.894 18.541 25.736 22.832-41.938 14.7-70.442 54.256-70.442 99.473v43.499c0 14.133 11.498 25.632 25.632 25.632h246.915c16.765 0 31.049-11.982 33.966-28.492l21.531-121.923c.481-2.726.199-5.41-.681-7.843l.804-4.552c.845-4.782 3.109-9.121 6.549-12.547.012-.011.079-.079.091-.091.027-.028.056-.056.083-.084l5.627-5.858c11.059-11.513 12.322-31.248-3.465-44.909l15.544-41.058h121.103c10.26 0 18.606-8.347 18.606-18.606v-180.554h2.072c9.717 0 17.622-7.905 17.622-17.622v-9.725c.001-9.717-7.904-17.622-17.621-17.622zm-259.319 279.599.22.479c4.83 10.572 4.372 22.506-1.258 32.742-5.506 10.009-15.061 16.653-26.242 18.27l-26.419-13.167v-15.165c4.317-2.664 8.371-5.819 12.067-9.465 7.521-7.419 13.078-16.311 16.434-26.027 1.432-.181 10.096 1.178 19.127-5.166 1.467 6.079 3.499 11.958 6.071 17.499zm-36.98 96.705c2.683 3.33 4.214 3.878 3.759 5.494-3.46 12.322-19.378 31.888-34.786 48.552 5.299-12.268 10.879-26.355 15.685-44.632 4.216-16.03 4.996-32.766 2.361-49.172l16.331 8.139c.619.309.866.812.965 1.181.046.171.074.386.058.622-.003.03-.006.06-.008.091-.03.248-.112.518-.294.793l-5.557 8.394c-4.228 6.383-3.616 14.829 1.486 20.538zm-102.803-20.54-5.558-8.394c-.18-.272-.262-.539-.293-.785-.003-.036-.006-.072-.01-.109-.014-.231.012-.443.057-.611.074-.276.232-.627.565-.916.013-.01.028-.018.041-.028.104-.086.22-.168.359-.237l16.331-8.139c-2.635 16.406-1.854 33.142 2.361 49.171 4.806 18.277 10.386 32.365 15.685 44.633-15.408-16.665-31.326-36.231-34.786-48.553-.454-1.615 1.092-2.184 3.757-5.493 5.106-5.707 5.718-14.153 1.491-20.539zm29.535-30.838c.181-.596.698-3.513.698-6.678v-8.619c13.178 4.159 27.462 4.226 40.851 0v8.619c0 3.011.503 6.034.698 6.678 4.274 14.117 5.545 28.815 3.804 43.178-7.989 2.817-16.354 4.253-24.928 4.253-8.573 0-16.937-1.436-24.927-4.253-1.741-14.362-.471-29.061 3.804-43.178zm-31.513-78.948v-24.572c0-3.342 2.778-6.158 6.305-6.016 23.584.884 46.131-7.783 63.021-24.296 6.516-6.372 16.796-4.873 21.691 2.26 3.74 5.451 8.001 10.762 12.663 15.783 1.027 1.106 1.593 2.554 1.593 4.077v32.764c-.46 28.566-24.062 51.795-52.637 51.795s-52.176-23.229-52.636-51.795zm31.113 138.779c7.002 1.722 14.2 2.6 21.523 2.6s14.52-.878 21.522-2.6c-5.548 20.204-12.154 35.149-18.014 48.392-1.198 2.708-2.372 5.368-3.508 8.006-1.137-2.638-2.311-5.3-3.509-8.008-5.861-13.243-12.466-28.188-18.014-48.39zm101.789-146.032c-.037 7.173-5.648 13.19-13.004 13.512.669-6.426.255-9.031.374-27.147 7.015.503 12.576 6.334 12.629 13.463v.084c0 .029.001.059.001.088zm-10.117-147.149c0-1.006.818-1.825 1.825-1.825h44.767c1.007 0 1.826.819 1.826 1.825v62.271c0 1.006-.819 1.825-1.826 1.825h-39.435c-2.213-3.069-4.603-6.002-7.156-8.782v-55.314zm-150.402 119.68c0-44.252 36.002-80.253 80.254-80.253s80.253 36.001 80.253 80.257l.001 2.224c-3.848-2.087-8.227-3.309-12.876-3.425-.625-4.145-2.454-8.016-5.341-11.126-.001 0-.001 0-.001 0-4.164-4.485-7.962-9.216-11.288-14.064-10.343-15.073-31.605-17.151-44.546-4.499-13.918 13.607-32.51 20.764-51.972 20.032-7.516-.285-14.466 3.334-18.562 9.719-1.334.138-8.109-.815-15.924 3.406zm12.976 40.82c-7.282-.274-12.976-6.227-12.974-13.469.003-7.14 5.586-12.987 12.614-13.441.119 18.347-.284 20.574.36 26.91zm-20.809 60.744c-11.242-20.44.783-33.051 5.055-50.823 8.947 6.253 17.616 4.925 19.047 5.104 3.35 9.78 8.927 18.732 16.491 26.192 3.697 3.646 7.75 6.801 12.067 9.465v15.165l-26.419 13.167c-11.181-1.617-20.736-8.261-26.241-18.27zm233.893 167.565c-1.648 9.33-9.721 16.101-19.194 16.101-7.986 0-202.003 0-208.119 0v-32.57c0-4.142-3.357-7.5-7.5-7.5s-7.5 3.358-7.5 7.5v32.57h-23.796c-5.862 0-10.632-4.77-10.632-10.632v-43.499c0-39.576 25.456-74.094 62.633-86.066l5.136 7.756c.466.703.398 1.633-.164 2.262-1.045 1.702-10.19 8.246-7.016 19.546 6.815 24.266 48.007 66.285 65.321 81.943 2.906 2.621 7.291 2.556 10.117-.058 5.843-5.404 57.313-53.613 65.253-81.884 3.203-11.406-5.886-17.705-7.017-19.546-.562-.628-.629-1.559-.163-2.262l5.13-7.75c18.957 6.11 35.253 18.224 46.628 34.736l-21.866 65.144c-1.317 3.927.797 8.179 4.724 9.497 3.928 1.318 8.179-.797 9.497-4.724l36.621-109.101c.039-.119.168-.184.286-.151l22.985 6.497c.117.033.189.148.168.268zm37.957-160.682-5.566 5.797c-4.867 4.846-8.288 10.809-10.027 17.389l-16.216-4.583c5.43-16.648 6.2-17.183 6.915-22.488.332-2.457 1.419-4.682 3.146-6.441l13.597-12.742c1.669-1.565 4.261-1.541 5.9.057l1.902 1.854c5.887 5.738 6.045 15.229.349 21.157zm167.302-292.356c0 1.446-1.176 2.622-2.622 2.622h-340.116c-1.446 0-2.622-1.176-2.622-2.622v-9.725c0-1.445 1.176-2.622 2.622-2.622h340.116c1.446 0 2.622 1.176 2.622 2.622z" fill="#000000" data-original="#000000" class=""></path></g></g></g></g></svg>