<svg width="43" height="38" viewBox="0 0 43 38" fill="none" xmlns="http://www.w3.org/2000/svg">
<path fill-rule="evenodd" clip-rule="evenodd" d="M8.45967 0.0814284C7.33437 0.260729 6.30012 1.05428 5.77028 2.14484L5.46554 2.77207V16.5985V30.425L5.77028 31.0522C6.14771 31.8291 6.7453 32.4391 7.45069 32.7678L7.95928 33.0049L7.96338 34.0158C7.96978 35.5863 8.26616 36.4209 9.07178 37.1368C10.7463 38.6246 13.3467 38.1251 14.3077 36.1309C14.5614 35.6047 14.572 35.5412 14.5974 34.3956L14.6238 33.2064H21.4206H28.2173L28.2438 34.3956C28.2692 35.5412 28.2798 35.6047 28.5334 36.1309C29.4945 38.1251 32.0949 38.6246 33.7694 37.1368C34.575 36.4209 34.8714 35.5863 34.8778 34.0158L34.8819 33.0049L35.3905 32.7678C36.0958 32.4391 36.6934 31.8291 37.0709 31.0522L37.3756 30.425L37.4009 16.8807C37.4198 6.70918 37.402 3.22596 37.3294 2.893C37.0149 1.44997 35.7817 0.302732 34.2994 0.0740919C33.6293 -0.0292639 9.11059 -0.0223306 8.45967 0.0814284ZM2.42194 4.49106C1.62279 4.99865 1.0224 5.75608 0.647769 6.72893C0.465004 7.20347 0.463855 7.23725 0.439 12.6314L0.414062 18.0566L0.5965 18.3757C0.788534 18.7114 1.29114 19.0172 1.65109 19.0172C2.04271 19.0172 2.53432 18.7044 2.70429 18.3472C2.85859 18.023 2.86728 17.7313 2.92003 11.0962C2.9503 7.29392 2.95973 4.18293 2.94103 4.18293C2.92233 4.18293 2.6887 4.3216 2.42194 4.49106ZM39.9288 11.1312C39.9795 17.9526 39.9839 18.096 40.1493 18.3923C40.3274 18.7117 40.8363 19.0172 41.1901 19.0172C41.5846 19.0172 42.073 18.7043 42.2548 18.3352C42.4254 17.989 42.4268 17.9305 42.4033 12.5958L42.3795 7.20621L42.1602 6.65162C41.7744 5.67562 41.0409 4.80992 40.2178 4.35901L39.8771 4.17237L39.9288 11.1312ZM34.9557 12.4466V16.921H21.4206H7.88545V12.4466V7.97211H21.4206H34.9557V12.4466ZM12.6235 22.9672C12.7706 23.0553 12.9642 23.2456 13.0538 23.3901C13.2038 23.6318 13.2169 23.799 13.2171 25.475C13.2175 27.2372 13.2113 27.3062 13.0309 27.5693C12.7826 27.9315 12.2055 28.1704 11.7722 28.0905C11.3281 28.0086 10.8668 27.521 10.7962 27.0587C10.7671 26.8676 10.7555 26.0166 10.7704 25.1676C10.7953 23.751 10.8117 23.6052 10.9692 23.3965C11.4019 22.8232 12.0867 22.6454 12.6235 22.9672ZM31.4292 22.9877C32.0254 23.3865 32.0406 23.4412 32.0703 25.2836C32.1001 27.1374 32.0379 27.4644 31.5841 27.8396C31.0638 28.2699 30.2004 28.1383 29.8102 27.5693C29.6298 27.3062 29.6237 27.2372 29.624 25.475C29.6243 23.799 29.6374 23.6318 29.7873 23.3901C30.1407 22.8204 30.9006 22.6341 31.4292 22.9877Z" fill="#C7A033"/>
</svg>
