<svg width="39" height="38" viewBox="0 0 39 38" fill="none" xmlns="http://www.w3.org/2000/svg">
<path fill-rule="evenodd" clip-rule="evenodd" d="M16.3057 0.140616C13.5453 0.614028 10.8745 1.69779 8.65683 3.24428C3.96263 6.5178 0.987326 11.6444 0.463621 17.3617L0.414062 17.9027H4.63768H8.86137L8.95114 16.7843C9.29374 12.517 10.5793 8.54957 12.7305 5.12017C13.7033 3.56942 14.7324 2.31627 16.1509 0.955356C16.7025 0.426126 17.1383 -0.00378073 17.1193 2.50751e-05C17.1003 0.0039055 16.7341 0.0671116 16.3057 0.140616ZM21.838 0.198748C24.32 2.29679 26.3411 5.06174 27.7696 8.31361C28.2937 9.50662 28.9838 11.5932 29.2505 12.791C29.5269 14.0327 29.4839 13.9639 30.0783 14.1174C31.6086 14.5126 33.2482 15.8778 34.1537 17.5109L34.3709 17.9026L36.3554 17.9027L38.34 17.9027L38.3387 17.511C38.3379 17.2955 38.2898 16.7834 38.2317 16.373C37.4355 10.7443 34.2561 5.81962 29.4573 2.78177C27.3934 1.47526 24.4528 0.391649 22.1348 0.0833796L21.6206 0.0149498L21.838 0.198748ZM17.3309 2.92206C13.7375 6.51377 11.571 11.5188 11.1448 17.2132L11.0932 17.9042L14.6824 17.8848L18.2717 17.8654L18.2906 9.97398C18.3022 5.11554 18.2829 2.08254 18.2401 2.08254C18.202 2.08254 17.7928 2.46036 17.3309 2.92206ZM20.5345 9.99003V17.9027H21.9424H23.3503L23.4744 17.6975C24.2014 16.4954 24.8322 15.7567 25.6791 15.1155C26.1274 14.7762 26.4086 14.6144 27.271 14.1995C27.318 14.177 26.7667 12.0114 26.5419 11.3359C25.7542 8.96821 24.5969 6.74159 23.1658 4.84011C22.5959 4.08298 20.9325 2.29156 20.6663 2.14821C20.5404 2.08045 20.5345 2.4323 20.5345 9.99003ZM28.053 16.3243C27.1033 16.6544 25.9529 17.769 25.4061 18.8887C24.8245 20.08 24.6892 20.9798 24.8559 22.5495L24.9571 23.5025L23.6175 24.2016C22.8808 24.5861 21.8607 25.1096 21.3506 25.3648C19.9892 26.046 19.6057 26.2953 19.4671 26.5894C19.3682 26.7988 19.3475 27.1301 19.3475 28.4956C19.3475 30.2691 19.366 30.3729 19.746 30.7301C20.074 31.0382 20.4369 31.0187 23.1225 30.5484C24.4748 30.3117 25.5965 30.1333 25.6152 30.1522C25.6576 30.1948 25.8767 32.1591 25.8748 32.4801C25.8735 32.7046 25.8265 32.7419 24.8547 33.288C24.2944 33.6029 23.7358 33.9661 23.6134 34.0949L23.3908 34.3293L23.3678 35.7404C23.342 37.3215 23.3968 37.57 23.83 37.8358C24.2647 38.1025 24.4057 38.0842 26.6896 37.4628L28.8755 36.8682L30.9184 37.4313C32.042 37.741 33.12 37.9968 33.314 37.9998C33.7127 38.0059 33.9709 37.8541 34.241 37.4549C34.3983 37.2224 34.408 37.1334 34.408 35.9109C34.408 34.0875 34.4482 34.1557 32.8385 33.2491L31.8254 32.6786L31.858 32.3986C31.876 32.2446 31.9353 31.6891 31.9899 31.1642C32.0445 30.6393 32.1088 30.19 32.1329 30.1658C32.1569 30.1417 33.2586 30.3108 34.5811 30.5419C35.9035 30.7728 37.1351 30.9619 37.3179 30.9619C37.7265 30.9619 38.1013 30.7297 38.2842 30.3634C38.3959 30.1399 38.414 29.8768 38.4141 28.4769C38.4142 26.7443 38.393 26.6225 38.0318 26.2842C37.9361 26.1945 36.7227 25.5363 35.3353 24.8213L32.8129 23.5214L32.8309 23.2679C32.8409 23.1285 32.878 22.6115 32.9133 22.119C32.9894 21.0598 32.9265 20.4357 32.6637 19.6426C32.2758 18.4717 31.4672 17.4102 30.4339 16.715C29.6405 16.1813 28.8416 16.0502 28.053 16.3243ZM29.3335 18.6542C30.235 19.278 30.8416 20.5988 30.7288 21.6921C30.7089 21.8858 30.4768 24.1314 30.2133 26.6822C29.9497 29.2331 29.734 31.3577 29.734 31.4037C29.734 31.4541 29.6173 31.4274 29.4402 31.3365C29.0697 31.1463 28.6587 31.1443 28.3126 31.3309L28.0433 31.4761L27.9993 31.163C27.9751 30.9908 27.7345 28.7343 27.4647 26.1486C27.0232 21.9177 26.9823 21.3932 27.0549 20.9056C27.1409 20.3282 27.386 19.7627 27.7536 19.2933C28.0513 18.9131 28.6707 18.4251 28.8556 18.4251C28.9364 18.4251 29.1515 18.5282 29.3335 18.6542ZM0.429123 20.219C0.429123 20.2617 0.464066 20.6227 0.506725 21.0212C1.0538 26.1273 3.62744 30.8099 7.64147 34.0021C10.1255 35.9776 13.1759 37.3329 16.3319 37.8632C16.7339 37.9307 17.075 37.9739 17.0897 37.959C17.1045 37.9441 16.8005 37.6486 16.414 37.3022C12.2353 33.5567 9.48211 27.6261 8.95418 21.233L8.86404 20.1414H4.64658C1.77782 20.1414 0.429123 20.1662 0.429123 20.219ZM11.1469 20.8317C11.5598 26.5105 13.8477 31.7007 17.5036 35.2527L18.2717 35.9989L18.2917 34.2559L18.3116 32.5128L18.0532 32.2251C17.6798 31.8094 17.445 31.4093 17.2729 30.8954C17.1363 30.4875 17.1218 30.2585 17.1218 28.5083C17.1218 26.8217 17.1398 26.5142 17.2616 26.1207C17.4356 25.5582 17.6976 25.1058 18.0429 24.7721L18.3088 24.515V22.3282V20.1414H14.7028H11.0967L11.1469 20.8317ZM20.5345 21.7135V23.2856L21.5546 22.7468L22.5747 22.2079L22.587 21.1747L22.5991 20.1414H21.5669H20.5345V21.7135ZM35.1187 20.3093C35.1479 20.4017 35.1692 20.8712 35.1662 21.3527L35.1607 22.2281L36.4975 22.9067C37.2328 23.2799 37.8458 23.5738 37.8597 23.5598C37.9505 23.4684 38.2776 21.421 38.3611 20.4213L38.3844 20.1414H36.7251H35.0657L35.1187 20.3093ZM25.3133 26.9005C25.3714 27.4308 25.4133 27.869 25.4064 27.8743C25.3996 27.8796 24.576 28.0247 23.5763 28.1968C22.5766 28.369 21.7169 28.5232 21.6659 28.5395C21.5995 28.5608 21.5732 28.4549 21.5732 28.167V27.7647L23.3723 26.8368C24.3617 26.3265 25.1795 25.9151 25.1895 25.9227C25.1995 25.9302 25.2551 26.3703 25.3133 26.9005ZM36.1885 28.1636C36.1885 28.5025 36.1697 28.5557 36.0587 28.5307C35.9873 28.5146 35.1276 28.363 34.1483 28.1938C33.169 28.0247 32.3587 27.878 32.3477 27.8679C32.3259 27.8479 32.4572 26.5161 32.5177 26.1436L32.5549 25.9145L34.3717 26.8409L36.1885 27.7673V28.1636ZM20.8869 33.1808L20.5345 33.2088V34.5894V35.9701L20.8222 35.7271L21.1099 35.4842L21.146 34.7342C21.1708 34.2178 21.2314 33.8563 21.3405 33.5737C21.5303 33.0819 21.5276 33.123 21.3691 33.1394C21.2978 33.1468 21.0808 33.1654 20.8869 33.1808ZM30.4639 34.4748C31.2662 34.9291 31.9503 35.3279 31.984 35.3609C32.0178 35.3941 31.4002 35.2417 30.6115 35.0224C29.8229 34.8032 29.0528 34.6226 28.9003 34.6211C28.7477 34.6196 28.0012 34.7881 27.2412 34.9956C26.4813 35.2029 25.8459 35.3591 25.8294 35.3425C25.7741 35.2869 28.8053 33.5885 28.9059 33.6188C28.9605 33.6352 29.6616 34.0205 30.4639 34.4748Z" fill="#C0467C"/>
</svg>
