<svg xmlns="http://www.w3.org/2000/svg" xmlns:xlink="http://www.w3.org/1999/xlink" xmlns:svgjs="http://svgjs.com/svgjs" width="512" height="512" x="0" y="0" viewBox="0 0 64 64" style="enable-background:new 0 0 512 512" xml:space="preserve" class=""><g><path xmlns="http://www.w3.org/2000/svg" d="m40 36 11.106 2.082a6 6 0 0 1 4.894 5.898v18.02h-48v-18.02a6 6 0 0 1 4.894-5.9l11.106-2.08" fill="#fbe1cb" data-original="#c18e59" class=""></path><path xmlns="http://www.w3.org/2000/svg" d="m19.94 36.761 1.06 4.239-6 1-1.03-4.119z" fill="#f7ca59" data-original="#cccccc" class=""></path><path xmlns="http://www.w3.org/2000/svg" d="m50.03 37.881-1.03 4.119-6-1 1.06-4.239z" fill="#f7ca59" data-original="#cccccc" class=""></path><path xmlns="http://www.w3.org/2000/svg" d="m41 14h1a3 3 0 0 1 3 3 3 3 0 0 1 -3 3h-1" fill="#ffc999" data-original="#f2b9a1" class=""></path><path xmlns="http://www.w3.org/2000/svg" d="m23 14h-1a3 3 0 0 0 -3 3 3 3 0 0 0 3 3h1" fill="#ffc999" data-original="#f2b9a1" class=""></path><path xmlns="http://www.w3.org/2000/svg" d="m41 12c0 2.209-4.029 4-9 4s-9-1.791-9-4v9a9 9 0 0 0 9 9 9 9 0 0 0 9-9z" fill="#ffc999" data-original="#fbe1ca" class=""></path><path xmlns="http://www.w3.org/2000/svg" d="m41 12c0 2.209-4.029 4-9 4s-9-1.791-9-4v-2h18z" fill="#eb7100" data-original="#976947" class=""></path><path xmlns="http://www.w3.org/2000/svg" d="m41 10 2.4-3.2a3 3 0 0 0 .6-1.8 3 3 0 0 0 -3-3h-18a3 3 0 0 0 -3 3 3 3 0 0 0 .6 1.8l2.4 3.2" fill="#fbe1cb" data-original="#c18e59" class=""></path><path xmlns="http://www.w3.org/2000/svg" d="m17 48h2v14h-2z" fill="#eb7100" data-original="#976947" class=""></path><path xmlns="http://www.w3.org/2000/svg" d="m45 48h2v14h-2z" fill="#eb7100" data-original="#976947" class=""></path><g xmlns="http://www.w3.org/2000/svg" fill="#674025"><path d="m22 49v5l3 3 3-3v-5z" fill="#eb7100" data-original="#674025" class=""></path><path d="m36 49v5l3 3 3-3v-5z" fill="#eb7100" data-original="#674025" class=""></path><path d="m31 36h2v26h-2z" fill="#eb7100" data-original="#674025" class=""></path></g><path xmlns="http://www.w3.org/2000/svg" d="m28 34-5 1 6 7 3-5" fill="#eb7100" data-original="#976947" class=""></path><path xmlns="http://www.w3.org/2000/svg" d="m36 34 5 1-6 7-3-5" fill="#eb7100" data-original="#976947" class=""></path><path xmlns="http://www.w3.org/2000/svg" d="m36 29.064a8.96 8.96 0 0 1 -4 .936 8.96 8.96 0 0 1 -4-.936v4.936l4 3 4-3z" fill="#ffc999" data-original="#f2b9a1" class=""></path><path xmlns="http://www.w3.org/2000/svg" d="m36 49h4v5h-4z" fill="#eb7100" data-original="#976947" class=""></path><path xmlns="http://www.w3.org/2000/svg" d="m22 49h4v5h-4z" fill="#eb7100" data-original="#976947" class=""></path><path xmlns="http://www.w3.org/2000/svg" d="m51.29 37.1-9.36-1.755a.985.985 0 0 0 .015-.671 1 1 0 0 0 -.749-.654l-4.196-.84v-3.533a10 10 0 0 0 5-8.647 4 4 0 0 0 0-8v-2.667l2.2-2.933a4 4 0 0 0 -3.2-6.4h-18a4 4 0 0 0 -3.2 6.4l2.2 2.933v2.667a4 4 0 0 0 0 8 10 10 0 0 0 5 8.647v3.533l-4.2.84a1 1 0 0 0 -.749.654.985.985 0 0 0 .015.671l-9.357 1.755a7 7 0 0 0 -5.709 6.879v18.021a1 1 0 0 0 1 1h48a1 1 0 0 0 1-1v-18.021a7 7 0 0 0 -5.71-6.879zm-6.488.817 4 .75-.548 2.2-4.021-.671zm-8.56-2.849 2.887.578-3.985 4.654-1.823-3.037zm7.758-18.068a2 2 0 0 1 -2 2v-4a2 2 0 0 1 2 2zm-23-12a2 2 0 0 1 2-2h18a2 2 0 0 1 1.6 3.2l-2.1 2.8h-17l-2.1-2.8a1.984 1.984 0 0 1 -.4-1.2zm3 6h16v1c0 1.224-3.117 3-8 3s-8-1.776-8-3zm-4 6a2 2 0 0 1 2-2v4a2 2 0 0 1 -2-2zm4 4v-5.936a14.931 14.931 0 0 0 8 1.936 14.931 14.931 0 0 0 8-1.936v5.936a8 8 0 0 1 -16 0zm8 10a9.986 9.986 0 0 0 3-.461v2.961l-3 2.25-3-2.25v-2.961a9.986 9.986 0 0 0 3 .461zm-4.242 4.068 2.921 2.191-1.823 3.041-3.985-4.65zm-7.991 5.123-4.021.671-.549-2.2 4-.75zm-10.767 3.788a5 5 0 0 1 4.078-4.915l.15-.028.8 3.206a1 1 0 0 0 .972.758.938.938 0 0 0 .166-.014l6-1a1 1 0 0 0 .8-1.228l-.8-3.21 2.325-.436 4.748 5.538a1 1 0 0 0 .761.35.787.787 0 0 0 .084 0 1 1 0 0 0 .773-.481l1.143-1.909v20.39h-12v-13h-2v13h-8zm46 17.021h-8v-13h-2v13h-12v-20.39l1.143 1.905a1 1 0 0 0 .773.481.787.787 0 0 0 .084.004 1 1 0 0 0 .759-.35l4.748-5.538 2.325.436-.8 3.21a1 1 0 0 0 .8 1.228l6 1a.938.938 0 0 0 .168.014 1 1 0 0 0 .969-.758l.8-3.206.149.028a5 5 0 0 1 4.082 4.915z" fill="#000000" data-original="#000000" class=""></path><path xmlns="http://www.w3.org/2000/svg" d="m24.293 57.707a1 1 0 0 0 1.414 0l3-3a1 1 0 0 0 .293-.707v-5a1 1 0 0 0 -1-1h-6a1 1 0 0 0 -1 1v5a1 1 0 0 0 .293.707zm-1.293-7.707h4v3.586l-2 2-2-2z" fill="#000000" data-original="#000000" class=""></path><path xmlns="http://www.w3.org/2000/svg" d="m42 48h-6a1 1 0 0 0 -1 1v5a1 1 0 0 0 .293.707l3 3a1 1 0 0 0 1.414 0l3-3a1 1 0 0 0 .293-.707v-5a1 1 0 0 0 -1-1zm-1 5.586-2 2-2-2v-3.586h4z" fill="#000000" data-original="#000000" class=""></path></g></svg>