<svg width="38" height="37" viewBox="0 0 38 37" fill="none" xmlns="http://www.w3.org/2000/svg">
<path fill-rule="evenodd" clip-rule="evenodd" d="M7.09065 0.0364621C6.51326 0.108554 5.81598 0.299593 5.64786 0.431845C5.26389 0.733877 5.12614 1.35855 5.35045 1.78098C5.40743 1.88835 6.25345 2.77312 7.23042 3.74719L9.00678 5.51817L7.47085 7.05537L5.93485 8.59258L4.12654 6.79239C3.13199 5.80234 2.24714 4.95633 2.1603 4.91237C1.75146 4.70542 1.06091 4.89364 0.806956 5.28121C0.635149 5.5434 0.477804 6.31891 0.427548 7.15089C0.298187 9.29412 1.10436 11.4074 2.63559 12.9392C3.59861 13.9026 4.76619 14.5606 6.18309 14.9384C6.78203 15.0982 7.02253 15.1226 7.99452 15.1226C8.97858 15.1226 9.20346 15.0991 9.83805 14.9303L10.5608 14.738L16.6259 20.8031L22.6911 26.8681L22.5784 27.2208C22.3487 27.9399 22.2793 28.4624 22.2821 29.4534C22.2864 31.0208 22.6483 32.2592 23.4757 33.5381C24.9532 35.8216 27.5507 37.1417 30.2612 36.9865C34.1517 36.7637 37.2071 33.6783 37.3987 29.7788C37.5799 26.0896 35.1851 22.9368 31.5101 22.0263C30.4037 21.7521 28.7392 21.8112 27.6354 22.1638L27.2828 22.2765L21.2177 16.2114L15.1525 10.1463L15.3448 9.42362C15.5136 8.78904 15.5371 8.56416 15.5371 7.58012C15.5371 6.60815 15.5127 6.36765 15.3529 5.76872C14.5384 2.71397 12.2295 0.588899 9.18762 0.0941643C8.58977 -0.00309064 7.62111 -0.0297002 7.09065 0.0364621ZM28.5879 0.0962612C25.5424 0.608639 23.2055 2.81571 22.4409 5.90205C22.1668 7.00809 22.2258 8.67292 22.5782 9.77598L22.6906 10.1281L21.5798 11.2406L20.4689 12.3532L22.7639 14.6481L25.0588 16.9431L26.1629 15.8407L27.267 14.7383L27.9891 14.9305C28.623 15.0991 28.8481 15.1226 29.832 15.1226C30.804 15.1226 31.0445 15.0982 31.6434 14.9384C33.0618 14.5602 34.2316 13.9006 35.1887 12.9392C36.9369 11.1832 37.7078 8.79208 37.3127 6.35087C37.1804 5.53299 37.0391 5.21606 36.7087 4.99603C36.4384 4.81598 35.9363 4.77563 35.6662 4.91237C35.5793 4.95633 34.6945 5.80234 33.7 6.79239L31.8916 8.59258L30.3556 7.05537L28.8197 5.51817L30.5961 3.74719C31.573 2.77312 32.4191 1.88835 32.476 1.78098C32.7395 1.28465 32.5089 0.583476 32.0003 0.334156C31.3786 0.0295205 29.6861 -0.088487 28.5879 0.0962612ZM11.6367 21.1829L10.5434 22.2763L10.1908 22.1637C9.08733 21.8112 7.42269 21.7521 6.31643 22.0263C4.46589 22.4848 2.98983 23.4445 1.91163 24.8903C0.854608 26.3077 0.339042 28.0081 0.429429 29.7788C0.474405 30.6602 0.626544 31.4408 0.806956 31.7162C1.07284 32.122 1.75949 32.2927 2.1953 32.0613C2.30268 32.0043 3.18746 31.1583 4.16154 30.1814L5.93254 28.405L7.46977 29.9409L9.00699 31.4769L7.20678 33.2852C6.21672 34.2797 5.3707 35.1646 5.32673 35.2514C5.18999 35.5215 5.23034 36.0236 5.41039 36.294C5.63043 36.6243 5.94736 36.7656 6.76526 36.898C9.19811 37.2916 11.5634 36.5363 13.3185 34.8054C14.3097 33.828 14.9688 32.6691 15.3529 31.2287C15.5127 30.6297 15.5371 30.3893 15.5371 29.4173C15.5371 28.4335 15.5136 28.2083 15.345 27.5744L15.1528 26.8524L16.2551 25.7484L17.3573 24.6445L15.0806 22.367C13.8284 21.1144 12.7873 20.0895 12.7671 20.0895C12.7468 20.0895 12.2381 20.5815 11.6367 21.1829ZM31.3671 27.8792L32.0013 28.5104V29.4173V30.3242L31.3671 30.9554L30.7329 31.5865H29.832H28.931L28.2968 30.9554L27.6627 30.3242V29.4202V28.5163L28.2939 27.8822L28.9251 27.248H29.829H30.7329L31.3671 27.8792Z" fill="#86198F"/>
</svg>
